<?xml version="1.0" encoding="utf-8" ?>
<svg baseProfile="full" height="1080px" version="1.1" width="1080px" xmlns="http://www.w3.org/2000/svg" xmlns:ev="http://www.w3.org/2001/xml-events" xmlns:xlink="http://www.w3.org/1999/xlink"><defs><clipPath id="border_clip"><rect height="1080" width="1080" x="0" y="0" /></clipPath></defs><polyline clip-path="url(#border_clip)" fill="none" points="750.5,540.5 755.5,540.5 760.5,540.5 765.5,540.5 770.5,540.5 775.5,540.5 780.5,540.5 785.5,540.5 790.5,540.5 795.5,540.5 800.5,540.5 805.5,540.5 810.5,540.5 815.5,540.5 820.5,540.5 825.5,540.5 830.5,540.5 835.5,540.5 840.5,540.5 845.5,540.5 850.5,540.5 855.5,540.5 860.5,540.5 865.5,540.5 870.5,540.5 875.5,540.5 880.5,540.5 885.5,540.5 890.5,540.5 895.5,540.5 900.5,540.5 905.5,540.5 910.5,540.5 915.5,540.5 920.5,540.5 925.5,540.5 930.5,540.5 935.5,540.5 940.5,540.5 945.5,540.5 950.5,540.5 955.5,540.5 960.5,540.5" stroke="black" stroke-linecap="round" stroke-width="10" /><polyline clip-path="url(#border_clip)" fill="none" points="960.5,540.5 965.5,540.5 970.5,540.5 975.5,540.5 980.5,540.5 985.5,540.5 990.5,540.5 995.5,540.5 1000.5,540.5 1005.5,540.5 1010.5,540.5 1015.5,540.5 1020.5,540.5 1025.5,540.5 1030.5,540.5 1035.5,540.5 1040.5,540.5 1045.5,540.5 1050.5,540.5 1055.5,540.5 1060.5,540.5 1065.5,540.5 1070.5,540.5 1075.5,540.5 1080.5,540.5 1085.5,540.5 1090.5,540.5 1095.5,540.5 1100.5,540.5 1105.5,540.5 1110.5,540.5 1115.5,540.5 1120.5,540.5 1125.5,540.5 1130.5,540.5 1135.5,540.5 1140.5,540.5 1145.5,540.5 1150.5,540.5 1155.5,540.5 1160.5,540.5 1165.5,540.5 1170.5,540.5" stroke="black" stroke-linecap="round" stroke-width="10" /><polyline clip-path="url(#border_clip)" fill="none" points="1170.5,540.5 1175.5,540.5 1180.5,540.5 1185.5,540.5 1190.5,540.5 1195.5,540.5 1200.5,540.5 1205.5,540.5 1210.5,540.5 1215.5,540.5 1220.5,540.5 1225.5,540.5 1230.5,540.5 1235.5,540.5 1240.5,540.5 1245.5,540.5 1250.5,540.5 1255.5,540.5 1260.5,540.5 1265.5,540.5 1270.5,540.5 1275.5,540.5 1280.5,540.5 1285.5,540.5 1290.5,540.5 1295.5,540.5 1300.5,540.5 1305.5,540.5 1310.5,540.5 1315.5,540.5 1320.5,540.5 1325.5,540.5 1330.5,540.5 1335.5,540.5 1340.5,540.5 1345.5,540.5 1350.5,540.5 1355.5,540.5 1360.5,540.5 1365.5,540.5 1370.5,540.5 1375.5,540.5 1380.5,540.5" stroke="black" stroke-linecap="round" stroke-width="10" /><polyline clip-path="url(#border_clip)" fill="none" points="1380.5,540.5 1385.5,540.5 1390.5,540.5 1395.5,540.5 1400.5,540.5 1405.5,540.5 1410.5,540.5 1415.5,540.5 1420.5,540.5 1425.5,540.5 1430.5,540.5 1435.5,540.5 1440.5,540.5 1445.5,540.5 1450.5,540.5 1455.5,540.5 1460.5,540.5 1465.5,540.5 1470.5,540.5 1475.5,540.5 1480.5,540.5 1485.5,540.5 1490.5,540.5 1495.5,540.5 1500.5,540.5 1505.5,540.5 1510.5,540.5 1515.5,540.5 1520.5,540.5 1525.5,540.5 1530.5,540.5 1535.5,540.5 1540.5,540.5 1545.5,540.5 1550.5,540.5 1555.5,540.5 1560.5,540.5 1565.5,540.5 1570.5,540.5 1575.5,540.5 1580.5,540.5 1585.5,540.5 1590.5,540.5" stroke="black" stroke-linecap="round" stroke-width="10" /><polyline clip-path="url(#border_clip)" fill="none" points="1590.5,540.5 1595.5,540.5 1600.5,540.5 1605.5,540.5 1610.5,540.5 1615.5,540.5 1620.5,540.5 1625.5,540.5 1630.5,540.5 1635.5,540.5 1640.5,540.5 1645.5,540.5 1650.5,540.5 1655.5,540.5 1660.5,540.5 1665.5,540.5 1670.5,540.5 1675.5,540.5 1680.5,540.5 1685.5,540.5 1690.5,540.5 1695.5,540.5 1700.5,540.5 1705.5,540.5 1710.5,540.5 1715.5,540.5 1720.5,540.5 1725.5,540.5 1730.5,540.5 1735.5,540.5 1740.5,540.5 1745.5,540.5 1750.5,540.5 1755.5,540.5 1760.5,540.5 1765.5,540.5 1770.5,540.5 1775.5,540.5 1780.5,540.5 1785.5,540.5 1790.5,540.5 1795.5,540.5 1800.5,540.5" stroke="black" stroke-linecap="round" stroke-width="10" /><polyline clip-path="url(#border_clip)" fill="none" points="1800.5,540.5 1805.5,540.5 1810.5,540.5 1815.5,540.5 1820.5,540.5 1825.5,540.5 1830.5,540.5 1835.5,540.5 1840.5,540.5 1845.5,540.5 1850.5,540.5 1855.5,540.5 1860.5,540.5 1865.5,540.5 1870.5,540.5 1875.5,540.5 1880.5,540.5 1885.5,540.5 1890.5,540.5 1895.5,540.5 1900.5,540.5 1905.5,540.5 1910.5,540.5 1915.5,540.5 1920.5,540.5 1925.5,540.5 1930.5,540.5 1935.5,540.5 1940.5,540.5 1945.5,540.5 1950.5,540.5 1955.5,540.5 1960.5,540.5 1965.5,540.5 1970.5,540.5 1975.5,540.5 1980.5,540.5 1985.5,540.5 1990.5,540.5 1995.5,540.5 2000.5,540.5 2005.5,540.5 2010.5,540.5" stroke="black" stroke-linecap="round" stroke-width="10" /><polyline clip-path="url(#border_clip)" fill="none" points="2010.5,540.5 2015.5,540.5 2020.5,540.5 2025.5,540.5 2030.5,540.5 2035.5,540.5 2040.5,540.5 2045.5,540.5 2050.5,540.5 2055.5,540.5 2060.5,540.5 2065.5,540.5 2070.5,540.5 2075.5,540.5 2080.5,540.5 2085.5,540.5 2090.5,540.5 2095.5,540.5 2100.5,540.5 2105.5,540.5 2110.5,540.5 2115.5,540.5 2120.5,540.5 2125.5,540.5 2130.5,540.5 2135.5,540.5 2140.5,540.5 2145.5,540.5 2150.5,540.5 2155.5,540.5 2160.5,540.5 2165.5,540.5 2170.5,540.5 2175.5,540.5 2180.5,540.5 2185.5,540.5 2190.5,540.5 2195.5,540.5 2200.5,540.5 2205.5,540.5 2210.5,540.5 2215.5,540.5 2220.5,540.5" stroke="black" stroke-linecap="round" stroke-width="10" /><polyline clip-path="url(#border_clip)" fill="none" points="2220.5,540.5 2225.5,540.5 2230.5,540.5 2235.5,540.5 2240.5,540.5 2245.5,540.5 2250.5,540.5 2255.5,540.5 2260.5,540.5 2265.5,540.5 2270.5,540.5 2275.5,540.5 2280.5,540.5 2285.5,540.5 2290.5,540.5 2295.5,540.5 2300.5,540.5 2305.5,540.5 2310.5,540.5 2315.5,540.5 2320.5,540.5 2325.5,540.5 2330.5,540.5 2335.5,540.5 2340.5,540.5 2345.5,540.5 2350.5,540.5 2355.5,540.5 2360.5,540.5 2365.5,540.5 2370.5,540.5 2375.5,540.5 2380.5,540.5 2385.5,540.5 2390.5,540.5 2395.5,540.5 2400.5,540.5 2405.5,540.5 2410.5,540.5 2415.5,540.5 2420.5,540.5 2425.5,540.5 2430.5,540.5" stroke="black" stroke-linecap="round" stroke-width="10" /><polyline clip-path="url(#border_clip)" fill="none" points="2430.5,540.5 2435.5,540.5 2440.5,540.5 2445.5,540.5 2450.5,540.5 2455.5,540.5 2460.5,540.5 2465.5,540.5 2470.5,540.5 2475.5,540.5 2480.5,540.5 2485.5,540.5 2490.5,540.5 2495.5,540.5 2500.5,540.5 2505.5,540.5 2510.5,540.5 2515.5,540.5 2520.5,540.5 2525.5,540.5 2530.5,540.5 2535.5,540.5 2540.5,540.5 2545.5,540.5 2550.5,540.5 2555.5,540.5 2560.5,540.5 2565.5,540.5 2570.5,540.5 2575.5,540.5 2580.5,540.5 2585.5,540.5 2590.5,540.5 2595.5,540.5 2600.5,540.5 2605.5,540.5 2610.5,540.5 2615.5,540.5 2620.5,540.5 2625.5,540.5 2630.5,540.5 2635.5,540.5 2640.5,540.5" stroke="black" stroke-linecap="round" stroke-width="10" /><polyline clip-path="url(#border_clip)" fill="none" points="2640.5,540.5 2645.5,540.5 2650.5,540.5 2655.5,540.5 2660.5,540.5 2665.5,540.5 2670.5,540.5 2675.5,540.5 2680.5,540.5 2685.5,540.5 2690.5,540.5 2695.5,540.5 2700.5,540.5 2705.5,540.5 2710.5,540.5 2715.5,540.5 2720.5,540.5 2725.5,540.5 2730.5,540.5 2735.5,540.5 2740.5,540.5 2745.5,540.5 2750.5,540.5 2755.5,540.5 2760.5,540.5 2765.5,540.5 2770.5,540.5 2775.5,540.5 2780.5,540.5 2785.5,540.5 2790.5,540.5 2795.5,540.5 2800.5,540.5 2805.5,540.5 2810.5,540.5 2815.5,540.5 2820.5,540.5 2825.5,540.5 2830.5,540.5 2835.5,540.5 2840.5,540.5 2845.5,540.5 2850.5,540.5" stroke="black" stroke-linecap="round" stroke-width="10" /><polyline clip-path="url(#border_clip)" fill="none" points="2850.5,540.5 2855.5,540.5 2860.5,540.5 2865.5,540.5 2870.5,540.5 2875.5,540.5 2880.5,540.5 2885.5,540.5 2890.5,540.5 2895.5,540.5 2900.5,540.5 2905.5,540.5 2910.5,540.5 2915.5,540.5 2920.5,540.5 2925.5,540.5 2930.5,540.5 2935.5,540.5 2940.5,540.5 2945.5,540.5 2950.5,540.5 2955.5,540.5 2960.5,540.5 2965.5,540.5 2970.5,540.5 2975.5,540.5 2980.5,540.5 2985.5,540.5 2990.5,540.5 2995.5,540.5 3000.5,540.5 3005.5,540.5 3010.5,540.5 3015.5,540.5 3020.5,540.5 3025.5,540.5 3030.5,540.5 3035.5,540.5 3040.5,540.5 3045.5,540.5 3050.5,540.5 3055.5,540.5 3060.5,540.5" stroke="black" stroke-linecap="round" stroke-width="10" /><polyline clip-path="url(#border_clip)" fill="none" points="3060.5,540.5 3065.5,540.5 3070.5,540.5 3075.5,540.5 3080.5,540.5 3085.5,540.5 3090.5,540.5 3095.5,540.5 3100.5,540.5 3105.5,540.5 3110.5,540.5 3115.5,540.5 3120.5,540.5 3125.5,540.5 3130.5,540.5 3135.5,540.5 3140.5,540.5 3145.5,540.5 3150.5,540.5 3155.5,540.5 3160.5,540.5 3165.5,540.5 3170.5,540.5 3175.5,540.5 3180.5,540.5 3185.5,540.5 3190.5,540.5 3195.5,540.5 3200.5,540.5 3205.5,540.5 3210.5,540.5 3215.5,540.5 3220.5,540.5 3225.5,540.5 3230.5,540.5 3235.5,540.5 3240.5,540.5 3245.5,540.5 3250.5,540.5 3255.5,540.5 3260.5,540.5 3265.5,540.5 3270.5,540.5" stroke="black" stroke-linecap="round" stroke-width="10" /><polyline clip-path="url(#border_clip)" fill="none" points="3270.5,540.5 3275.5,540.5 3280.5,540.5 3285.5,540.5 3290.5,540.5 3295.5,540.5 3300.5,540.5 3305.5,540.5 3310.5,540.5 3315.5,540.5 3320.5,540.5 3325.5,540.5 3330.5,540.5 3335.5,540.5 3340.5,540.5 3345.5,540.5 3350.5,540.5 3355.5,540.5 3360.5,540.5 3365.5,540.5 3370.5,540.5 3375.5,540.5 3380.5,540.5 3385.5,540.5 3390.5,540.5 3395.5,540.5 3400.5,540.5 3405.5,540.5 3410.5,540.5 3415.5,540.5 3420.5,540.5 3425.5,540.5 3430.5,540.5 3435.5,540.5 3440.5,540.5 3445.5,540.5 3450.5,540.5 3455.5,540.5 3460.5,540.5 3465.5,540.5 3470.5,540.5 3475.5,540.5 3480.5,540.5" stroke="black" stroke-linecap="round" stroke-width="10" /><polyline clip-path="url(#border_clip)" fill="none" points="3480.5,540.5 3485.5,540.5 3490.5,540.5 3495.5,540.5 3500.5,540.5 3505.5,540.5 3510.5,540.5 3515.5,540.5 3520.5,540.5 3525.5,540.5 3530.5,540.5 3535.5,540.5 3540.5,540.5 3545.5,540.5 3550.5,540.5 3555.5,540.5 3560.5,540.5 3565.5,540.5 3570.5,540.5 3575.5,540.5 3580.5,540.5 3585.5,540.5 3590.5,540.5 3595.5,540.5 3600.5,540.5 3605.5,540.5 3610.5,540.5 3615.5,540.5 3620.5,540.5 3625.5,540.5 3630.5,540.5 3635.5,540.5 3640.5,540.5 3645.5,540.5 3650.5,540.5 3655.5,540.5 3660.5,540.5 3665.5,540.5 3670.5,540.5 3675.5,540.5 3680.5,540.5 3685.5,540.5 3690.5,540.5" stroke="black" stroke-linecap="round" stroke-width="10" /><polyline clip-path="url(#border_clip)" fill="none" points="3690.5,540.5 3695.5,540.5 3700.5,540.5 3705.5,540.5 3710.5,540.5 3715.5,540.5 3720.5,540.5 3725.5,540.5 3730.5,540.5 3735.5,540.5 3740.5,540.5 3745.5,540.5 3750.5,540.5 3755.5,540.5 3760.5,540.5 3765.5,540.5 3770.5,540.5 3775.5,540.5 3780.5,540.5 3785.5,540.5 3790.5,540.5 3795.5,540.5 3800.5,540.5 3805.5,540.5 3810.5,540.5 3815.5,540.5 3820.5,540.5 3825.5,540.5 3830.5,540.5 3835.5,540.5 3840.5,540.5 3845.5,540.5 3850.5,540.5 3855.5,540.5 3860.5,540.5 3865.5,540.5 3870.5,540.5 3875.5,540.5 3880.5,540.5 3885.5,540.5 3890.5,540.5 3895.5,540.5 3900.5,540.5" stroke="black" stroke-linecap="round" stroke-width="10" /><polyline clip-path="url(#border_clip)" fill="none" points="3900.5,540.5 3905.5,540.5 3910.5,540.5 3915.5,540.5 3920.5,540.5 3925.5,540.5 3930.5,540.5 3935.5,540.5 3940.5,540.5 3945.5,540.5 3950.5,540.5 3955.5,540.5 3960.5,540.5 3965.5,540.5 3970.5,540.5 3975.5,540.5 3980.5,540.5 3985.5,540.5 3990.5,540.5 3995.5,540.5 4000.5,540.5 4005.5,540.5 4010.5,540.5 4015.5,540.5 4020.5,540.5 4025.5,540.5 4030.5,540.5 4035.5,540.5 4040.5,540.5 4045.5,540.5 4050.5,540.5 4055.5,540.5 4060.5,540.5 4065.5,540.5 4070.5,540.5 4075.5,540.5 4080.5,540.5 4085.5,540.5 4090.5,540.5 4095.5,540.5 4100.5,540.5 4105.5,540.5 4110.5,540.5" stroke="black" stroke-linecap="round" stroke-width="10" /><polyline clip-path="url(#border_clip)" fill="none" points="4110.5,540.5 4115.5,540.5 4120.5,540.5 4125.5,540.5 4130.5,540.5 4135.5,540.5 4140.5,540.5 4145.5,540.5 4150.5,540.5 4155.5,540.5 4160.5,540.5 4165.5,540.5 4170.5,540.5 4175.5,540.5 4180.5,540.5 4185.5,540.5 4190.5,540.5 4195.5,540.5 4200.5,540.5 4205.5,540.5 4210.5,540.5 4215.5,540.5 4220.5,540.5 4225.5,540.5 4230.5,540.5 4235.5,540.5 4240.5,540.5 4245.5,540.5 4250.5,540.5 4255.5,540.5 4260.5,540.5 4265.5,540.5 4270.5,540.5 4275.5,540.5 4280.5,540.5 4285.5,540.5 4290.5,540.5 4295.5,540.5 4300.5,540.5 4305.5,540.5 4310.5,540.5 4315.5,540.5 4320.5,540.5" stroke="black" stroke-linecap="round" stroke-width="10" /><polyline clip-path="url(#border_clip)" fill="none" points="4320.5,540.5 4325.5,540.5 4330.5,540.5 4335.5,540.5 4340.5,540.5 4345.5,540.5 4350.5,540.5 4355.5,540.5 4360.5,540.5 4365.5,540.5 4370.5,540.5 4375.5,540.5 4380.5,540.5 4385.5,540.5 4390.5,540.5 4395.5,540.5 4400.5,540.5 4405.5,540.5 4410.5,540.5 4415.5,540.5 4420.5,540.5 4425.5,540.5 4430.5,540.5 4435.5,540.5 4440.5,540.5 4445.5,540.5 4450.5,540.5 4455.5,540.5 4460.5,540.5 4465.5,540.5 4470.5,540.5 4475.5,540.5 4480.5,540.5 4485.5,540.5 4490.5,540.5 4495.5,540.5 4500.5,540.5 4505.5,540.5 4510.5,540.5 4515.5,540.5 4520.5,540.5 4525.5,540.5 4530.5,540.5" stroke="black" stroke-linecap="round" stroke-width="10" /><polyline clip-path="url(#border_clip)" fill="none" points="4530.5,540.5 4535.5,540.5 4540.5,540.5 4545.5,540.5 4550.5,540.5 4555.5,540.5 4560.5,540.5 4565.5,540.5 4570.5,540.5 4575.5,540.5 4580.5,540.5 4585.5,540.5 4590.5,540.5 4595.5,540.5 4600.5,540.5 4605.5,540.5 4610.5,540.5 4615.5,540.5 4620.5,540.5 4625.5,540.5 4630.5,540.5 4635.5,540.5 4640.5,540.5 4645.5,540.5 4650.5,540.5 4655.5,540.5 4660.5,540.5 4665.5,540.5 4670.5,540.5 4675.5,540.5 4680.5,540.5 4685.5,540.5 4690.5,540.5 4695.5,540.5 4700.5,540.5 4705.5,540.5 4710.5,540.5 4715.5,540.5 4720.5,540.5 4725.5,540.5 4730.5,540.5 4735.5,540.5 4740.5,540.5" stroke="black" stroke-linecap="round" stroke-width="10" /><polyline clip-path="url(#border_clip)" fill="none" points="4740.5,540.5 4745.5,540.5 4750.5,540.5 4755.5,540.5 4760.5,540.5 4765.5,540.5 4770.5,540.5 4775.5,540.5 4780.5,540.5 4785.5,540.5 4790.5,540.5 4795.5,540.5 4800.5,540.5 4805.5,540.5 4810.5,540.5 4815.5,540.5 4820.5,540.5 4825.5,540.5 4830.5,540.5 4835.5,540.5 4840.5,540.5 4845.5,540.5 4850.5,540.5 4855.5,540.5 4860.5,540.5 4865.5,540.5 4870.5,540.5 4875.5,540.5 4880.5,540.5 4885.5,540.5 4890.5,540.5 4895.5,540.5 4900.5,540.5 4905.5,540.5 4910.5,540.5 4915.5,540.5 4920.5,540.5 4925.5,540.5 4930.5,540.5 4935.5,540.5 4940.5,540.5 4945.5,540.5 4950.5,540.5" stroke="black" stroke-linecap="round" stroke-width="10" /><polyline clip-path="url(#border_clip)" fill="none" points="4950.5,540.5 4955.5,540.5 4960.5,540.5 4965.5,540.5 4970.5,540.5 4975.5,540.5 4980.5,540.5 4985.5,540.5 4990.5,540.5 4995.5,540.5 5000.5,540.5 5005.5,540.5 5010.5,540.5 5015.5,540.5 5020.5,540.5 5025.5,540.5 5030.5,540.5 5035.5,540.5 5040.5,540.5 5045.5,540.5 5050.5,540.5 5055.5,540.5 5060.5,540.5 5065.5,540.5 5070.5,540.5 5075.5,540.5 5080.5,540.5 5085.5,540.5 5090.5,540.5 5095.5,540.5 5100.5,540.5 5105.5,540.5 5110.5,540.5 5115.5,540.5 5120.5,540.5 5125.5,540.5 5130.5,540.5 5135.5,540.5 5140.5,540.5 5145.5,540.5 5150.5,540.5 5155.5,540.5 5160.5,540.5" stroke="black" stroke-linecap="round" stroke-width="10" /><polyline clip-path="url(#border_clip)" fill="none" points="5160.5,540.5 5165.5,540.5 5170.5,540.5 5175.5,540.5 5180.5,540.5 5185.5,540.5 5190.5,540.5 5195.5,540.5 5200.5,540.5 5205.5,540.5 5210.5,540.5 5215.5,540.5 5220.5,540.5 5225.5,540.5 5230.5,540.5 5235.5,540.5 5240.5,540.5 5245.5,540.5 5250.5,540.5 5255.5,540.5 5260.5,540.5 5265.5,540.5 5270.5,540.5 5275.5,540.5 5280.5,540.5 5285.5,540.5 5290.5,540.5 5295.5,540.5 5300.5,540.5 5305.5,540.5 5310.5,540.5 5315.5,540.5 5320.5,540.5 5325.5,540.5 5330.5,540.5 5335.5,540.5 5340.5,540.5 5345.5,540.5 5350.5,540.5 5355.5,540.5 5360.5,540.5 5365.5,540.5 5370.5,540.5" stroke="black" stroke-linecap="round" stroke-width="10" /><polyline clip-path="url(#border_clip)" fill="none" points="5370.5,540.5 5375.5,540.5 5380.5,540.5 5385.5,540.5 5390.5,540.5 5395.5,540.5 5400.5,540.5 5405.5,540.5 5410.5,540.5 5415.5,540.5 5420.5,540.5 5425.5,540.5 5430.5,540.5 5435.5,540.5 5440.5,540.5 5445.5,540.5 5450.5,540.5 5455.5,540.5 5460.5,540.5 5465.5,540.5 5470.5,540.5 5475.5,540.5 5480.5,540.5 5485.5,540.5 5490.5,540.5 5495.5,540.5 5500.5,540.5 5505.5,540.5 5510.5,540.5 5515.5,540.5 5520.5,540.5 5525.5,540.5 5530.5,540.5 5535.5,540.5 5540.5,540.5 5545.5,540.5 5550.5,540.5 5555.5,540.5 5560.5,540.5 5565.5,540.5 5570.5,540.5 5575.5,540.5 5580.5,540.5" stroke="black" stroke-linecap="round" stroke-width="10" /><polyline clip-path="url(#border_clip)" fill="none" points="5580.5,540.5 5585.5,540.5 5590.5,540.5 5595.5,540.5 5600.5,540.5 5605.5,540.5 5610.5,540.5 5615.5,540.5 5620.5,540.5 5625.5,540.5 5630.5,540.5 5635.5,540.5 5640.5,540.5 5645.5,540.5 5650.5,540.5 5655.5,540.5 5660.5,540.5" stroke="black" stroke-linecap="round" stroke-width="10" /><polyline clip-path="url(#border_clip)" fill="none" points="540.5,540.5 545.5,540.5 550.5,540.5 555.5,540.5 560.5,540.5 565.5,540.5 570.5,540.5 575.5,540.5 580.5,540.5 585.5,540.5 590.5,540.5 595.5,540.5 600.5,540.5 605.5,540.5 610.5,540.5 615.5,540.5 620.5,540.5 625.5,540.5 630.5,540.5 635.5,540.5 640.5,540.5 645.5,540.5 650.5,540.5 655.5,540.5 660.5,540.5 665.5,540.5 670.5,540.5 675.5,540.5 680.5,540.5 685.5,540.5 690.5,540.5 695.5,540.5 700.5,540.5 705.5,540.5 710.5,540.5 715.5,540.5 720.5,540.5 725.5,540.5 730.5,540.5 735.5,540.5 740.5,540.5 745.5,540.5 750.5,540.5" stroke="black" stroke-linecap="round" stroke-width="10" /></svg>