<?xml version="1.0" encoding="utf-8" ?>
<svg baseProfile="full" height="1250px" version="1.1" width="1250px" xmlns="http://www.w3.org/2000/svg" xmlns:ev="http://www.w3.org/2001/xml-events" xmlns:xlink="http://www.w3.org/1999/xlink"><defs><clipPath id="border_clip"><rect height="1250" width="1250" x="0" y="0" /></clipPath></defs><polyline clip-path="url(#border_clip)" fill="none" points="625.5,373.5 625.5,367.5 625.5,361.5 625.5,355.5 625.5,349.5 625.5,343.5 625.5,337.5 625.5,331.5 625.5,325.5 625.5,319.5 625.5,313.5 625.5,307.5 625.5,301.5 625.5,295.5 625.5,289.5 625.5,283.5 625.5,277.5 625.5,271.5 625.5,265.5 625.5,259.5 625.5,253.5 625.5,247.5 625.5,241.5 625.5,235.5 625.5,229.5 625.5,223.5 625.5,217.5 625.5,211.5 625.5,205.5 625.5,199.5 625.5,193.5 625.5,187.5 625.5,181.5 625.5,175.5 625.5,169.5 625.5,163.5 625.5,157.5 625.5,151.5 625.5,145.5 625.5,139.5 625.5,133.5 625.5,127.5 625.5,121.5" stroke="black" stroke-linecap="round" stroke-width="10" /><polyline clip-path="url(#border_clip)" fill="none" points="625.5,121.5 625.5,115.5 625.5,109.5 625.5,103.5 625.5,97.5 625.5,91.5 625.5,85.5 625.5,79.5 625.5,73.5 625.5,67.5 625.5,61.5 625.5,55.5 625.5,49.5 625.5,43.5 625.5,37.5 625.5,31.5 625.5,25.5 625.5,19.5 625.5,13.5 625.5,7.5 625.5,1.5 625.5,-4.5 625.5,-10.5 625.5,-16.5 625.5,-22.5 625.5,-28.5 625.5,-34.5 625.5,-40.5 625.5,-46.5 625.5,-52.5 625.5,-58.5 625.5,-64.5 625.5,-70.5 625.5,-76.5 625.5,-82.5 625.5,-88.5 625.5,-94.5 625.5,-100.5 625.5,-106.5 625.5,-112.5 625.5,-118.5 625.5,-124.5 625.5,-130.5" stroke="black" stroke-linecap="round" stroke-width="10" /><polyline clip-path="url(#border_clip)" fill="none" points="625.5,-130.5 625.5,-136.5 625.5,-142.5 625.5,-148.5 625.5,-154.5 625.5,-160.5 625.5,-166.5 625.5,-172.5 625.5,-178.5 625.5,-184.5 625.5,-190.5 625.5,-196.5 625.5,-202.5 625.5,-208.5 625.5,-214.5 625.5,-220.5 625.5,-226.5 625.5,-232.5 625.5,-238.5 625.5,-244.5 625.5,-250.5 625.5,-256.5 625.5,-262.5 625.5,-268.5 625.5,-274.5 625.5,-280.5 625.5,-286.5 625.5,-292.5 625.5,-298.5 625.5000000000001,-304.5 625.5000000000001,-310.5 625.5000000000001,-316.5 625.5000000000001,-322.5 625.5000000000001,-328.5 625.5000000000001,-334.5 625.5000000000001,-340.5 625.5000000000001,-346.5 625.5000000000001,-352.5 625.5000000000001,-358.5 625.5000000000001,-364.5 625.5000000000001,-370.5 625.5000000000001,-376.5 625.5000000000001,-382.5" stroke="black" stroke-linecap="round" stroke-width="10" /><polyline clip-path="url(#border_clip)" fill="none" points="625.5000000000001,-382.5 625.5000000000001,-388.5 625.5000000000001,-394.5 625.5000000000001,-400.5 625.5000000000001,-406.5 625.5000000000001,-412.5 625.5000000000001,-418.5 625.5000000000001,-424.5 625.5000000000001,-430.5 625.5000000000001,-436.5 625.5000000000001,-442.5 625.5000000000001,-448.5 625.5000000000001,-454.5 625.5000000000001,-460.5 625.5000000000001,-466.5 625.5000000000001,-472.5 625.5000000000001,-478.5 625.5000000000001,-484.5 625.5000000000001,-490.5 625.5000000000001,-496.5 625.5000000000001,-502.5 625.5000000000001,-508.5 625.5000000000001,-514.5 625.5000000000001,-520.5 625.5000000000001,-526.5 625.5000000000001,-532.5 625.5000000000001,-538.5 625.5000000000001,-544.5 625.5000000000001,-550.5 625.5000000000001,-556.5 625.5000000000001,-562.5 625.5000000000001,-568.5 625.5000000000001,-574.5 625.5000000000001,-580.5 625.5000000000001,-586.5 625.5000000000001,-592.5 625.5000000000001,-598.5 625.5000000000001,-604.5 625.5000000000001,-610.5 625.5000000000001,-616.5 625.5000000000001,-622.5 625.5000000000001,-628.5 625.5000000000001,-634.5" stroke="black" stroke-linecap="round" stroke-width="10" /><polyline clip-path="url(#border_clip)" fill="none" points="625.5000000000001,-634.5 625.5000000000001,-640.5 625.5000000000001,-646.5 625.5000000000001,-652.5 625.5000000000001,-658.5 625.5000000000001,-664.5 625.5000000000001,-670.5 625.5000000000001,-676.5 625.5000000000001,-682.5 625.5000000000001,-688.5 625.5000000000001,-694.5 625.5000000000001,-700.5 625.5000000000001,-706.5 625.5000000000001,-712.5 625.5000000000001,-718.5 625.5000000000001,-724.5 625.5000000000001,-730.5 625.5000000000001,-736.5 625.5000000000001,-742.5 625.5000000000001,-748.5 625.5000000000001,-754.5 625.5000000000001,-760.5 625.5000000000001,-766.5 625.5000000000001,-772.5 625.5000000000001,-778.5 625.5000000000001,-784.5 625.5000000000001,-790.5 625.5000000000001,-796.5 625.5000000000001,-802.5 625.5000000000001,-808.5 625.5000000000001,-814.5 625.5000000000001,-820.5 625.5000000000001,-826.5 625.5000000000001,-832.5 625.5000000000001,-838.5 625.5000000000001,-844.5 625.5000000000001,-850.5 625.5000000000001,-856.5 625.5000000000001,-862.5 625.5000000000001,-868.5 625.5000000000001,-874.5 625.5000000000001,-880.5 625.5000000000001,-886.5" stroke="black" stroke-linecap="round" stroke-width="10" /><polyline clip-path="url(#border_clip)" fill="none" points="625.5000000000001,-886.5 625.5000000000001,-892.5 625.5000000000001,-898.5 625.5000000000001,-904.5 625.5000000000001,-910.5 625.5000000000001,-916.5 625.5000000000001,-922.5 625.5000000000001,-928.5 625.5000000000001,-934.5 625.5000000000001,-940.5 625.5000000000001,-946.5 625.5000000000001,-952.5 625.5000000000001,-958.5 625.5000000000001,-964.5 625.5000000000001,-970.5 625.5000000000001,-976.5 625.5000000000001,-982.5 625.5000000000001,-988.5 625.5000000000001,-994.5 625.5000000000001,-1000.5 625.5000000000001,-1006.5 625.5000000000001,-1012.5 625.5000000000001,-1018.5 625.5000000000001,-1024.5 625.5000000000001,-1030.5 625.5000000000001,-1036.5 625.5000000000001,-1042.5 625.5000000000001,-1048.5 625.5000000000001,-1054.5 625.5000000000001,-1060.5 625.5000000000001,-1066.5 625.5000000000001,-1072.5 625.5000000000001,-1078.5 625.5000000000001,-1084.5 625.5000000000001,-1090.5 625.5000000000001,-1096.5 625.5000000000001,-1102.5 625.5000000000001,-1108.5 625.5000000000001,-1114.5 625.5000000000001,-1120.5 625.5000000000001,-1126.5 625.5000000000001,-1132.5 625.5000000000001,-1138.5" stroke="black" stroke-linecap="round" stroke-width="10" /><polyline clip-path="url(#border_clip)" fill="none" points="625.5000000000001,-1138.5 625.5000000000001,-1144.5 625.5000000000001,-1150.5 625.5000000000001,-1156.5 625.5000000000001,-1162.5 625.5000000000001,-1168.5 625.5000000000001,-1174.5 625.5000000000001,-1180.5 625.5000000000001,-1186.5 625.5000000000001,-1192.5 625.5000000000001,-1198.5 625.5000000000001,-1204.5 625.5000000000001,-1210.5 625.5000000000001,-1216.5 625.5000000000001,-1222.5 625.5000000000001,-1228.5 625.5000000000001,-1234.5 625.5000000000001,-1240.5 625.5000000000001,-1246.5 625.5000000000001,-1252.5 625.5000000000001,-1258.5 625.5000000000001,-1264.5 625.5000000000001,-1270.5 625.5000000000001,-1276.5 625.5000000000001,-1282.5 625.5000000000001,-1288.5 625.5000000000001,-1294.5 625.5000000000001,-1300.5 625.5000000000001,-1306.5 625.5000000000001,-1312.5 625.5000000000001,-1318.5 625.5000000000001,-1324.5 625.5000000000001,-1330.5 625.5000000000001,-1336.5 625.5000000000001,-1342.5 625.5000000000001,-1348.5 625.5000000000001,-1354.5 625.5000000000001,-1360.5 625.5000000000001,-1366.5 625.5000000000001,-1372.5 625.5000000000001,-1378.5 625.5000000000001,-1384.5 625.5000000000001,-1390.5" stroke="black" stroke-linecap="round" stroke-width="10" /><polyline clip-path="url(#border_clip)" fill="none" points="625.5000000000001,-1390.5 625.5000000000001,-1396.5 625.5000000000001,-1402.5 625.5000000000001,-1408.5 625.5000000000001,-1414.5 625.5000000000001,-1420.5 625.5000000000001,-1426.5 625.5000000000001,-1432.5 625.5000000000001,-1438.5 625.5000000000001,-1444.5 625.5000000000001,-1450.5 625.5000000000001,-1456.5 625.5000000000001,-1462.5 625.5000000000001,-1468.5 625.5000000000001,-1474.5 625.5000000000001,-1480.5 625.5000000000001,-1486.5 625.5000000000001,-1492.5 625.5000000000001,-1498.5 625.5000000000001,-1504.5 625.5000000000001,-1510.5 625.5000000000001,-1516.5 625.5000000000001,-1522.5 625.5000000000001,-1528.5 625.5000000000001,-1534.5 625.5000000000001,-1540.5 625.5000000000001,-1546.5 625.5000000000001,-1552.5 625.5000000000001,-1558.5 625.5000000000001,-1564.5 625.5000000000001,-1570.5 625.5000000000001,-1576.5 625.5000000000001,-1582.5 625.5000000000001,-1588.5 625.5000000000001,-1594.5 625.5000000000001,-1600.5 625.5000000000001,-1606.5 625.5000000000001,-1612.5 625.5000000000001,-1618.5 625.5000000000001,-1624.5 625.5000000000001,-1630.5 625.5000000000001,-1636.5 625.5000000000001,-1642.5" stroke="black" stroke-linecap="round" stroke-width="10" /><polyline clip-path="url(#border_clip)" fill="none" points="625.5000000000001,-1642.5 625.5000000000001,-1648.5 625.5000000000001,-1654.5 625.5000000000001,-1660.5 625.5000000000001,-1666.5 625.5000000000001,-1672.5 625.5000000000001,-1678.5 625.5000000000001,-1684.5 625.5000000000001,-1690.5 625.5000000000001,-1696.5 625.5000000000001,-1702.5 625.5000000000001,-1708.5 625.5000000000001,-1714.5 625.5000000000001,-1720.5 625.5000000000001,-1726.5 625.5000000000001,-1732.5 625.5000000000001,-1738.5 625.5000000000001,-1744.5 625.5000000000001,-1750.5 625.5000000000001,-1756.5 625.5000000000001,-1762.5 625.5000000000001,-1768.5 625.5000000000001,-1774.5 625.5000000000001,-1780.5 625.5000000000001,-1786.5 625.5000000000001,-1792.5 625.5000000000001,-1798.5 625.5000000000001,-1804.5 625.5000000000001,-1810.5 625.5000000000001,-1816.5 625.5000000000001,-1822.5 625.5000000000001,-1828.5 625.5000000000001,-1834.5 625.5000000000001,-1840.5 625.5000000000001,-1846.5 625.5000000000001,-1852.5 625.5000000000001,-1858.5 625.5000000000001,-1864.5 625.5000000000001,-1870.5 625.5000000000001,-1876.5 625.5000000000001,-1882.5 625.5000000000001,-1888.5 625.5000000000001,-1894.5" stroke="black" stroke-linecap="round" stroke-width="10" /><polyline clip-path="url(#border_clip)" fill="none" points="625.5000000000001,-1894.5 625.5000000000001,-1900.5 625.5000000000001,-1906.5 625.5000000000001,-1912.5 625.5000000000001,-1918.5 625.5000000000001,-1924.5 625.5000000000001,-1930.5 625.5000000000001,-1936.5 625.5000000000001,-1942.5 625.5000000000001,-1948.5 625.5000000000001,-1954.5 625.5000000000001,-1960.5 625.5000000000001,-1966.5 625.5000000000001,-1972.5 625.5000000000001,-1978.5 625.5000000000001,-1984.5 625.5000000000001,-1990.5 625.5000000000001,-1996.5 625.5000000000001,-2002.5 625.5000000000001,-2008.5 625.5000000000001,-2014.5 625.5000000000001,-2020.5 625.5000000000001,-2026.5 625.5000000000001,-2032.5 625.5000000000001,-2038.5 625.5000000000001,-2044.5 625.5000000000001,-2050.5 625.5000000000001,-2056.5 625.5000000000001,-2062.5 625.5000000000001,-2068.5 625.5000000000001,-2074.5 625.5000000000001,-2080.5 625.5000000000001,-2086.5 625.5000000000001,-2092.5 625.5000000000001,-2098.5 625.5000000000001,-2104.5 625.5000000000001,-2110.5 625.5000000000001,-2116.5 625.5000000000001,-2122.5 625.5000000000001,-2128.5 625.5000000000001,-2134.5 625.5000000000001,-2140.5 625.5000000000001,-2146.5" stroke="black" stroke-linecap="round" stroke-width="10" /><polyline clip-path="url(#border_clip)" fill="none" points="625.5000000000001,-2146.5 625.5000000000001,-2152.5 625.5000000000001,-2158.5 625.5000000000002,-2164.5 625.5000000000002,-2170.5 625.5000000000002,-2176.5 625.5000000000002,-2182.5 625.5000000000002,-2188.5 625.5000000000002,-2194.5 625.5000000000002,-2200.5 625.5000000000002,-2206.5 625.5000000000002,-2212.5 625.5000000000002,-2218.5 625.5000000000002,-2224.5 625.5000000000002,-2230.5 625.5000000000002,-2236.5 625.5000000000002,-2242.5 625.5000000000002,-2248.5 625.5000000000002,-2254.5 625.5000000000002,-2260.5 625.5000000000002,-2266.5 625.5000000000002,-2272.5 625.5000000000002,-2278.5 625.5000000000002,-2284.5 625.5000000000002,-2290.5 625.5000000000002,-2296.5 625.5000000000002,-2302.5 625.5000000000002,-2308.5 625.5000000000002,-2314.5 625.5000000000002,-2320.5 625.5000000000002,-2326.5 625.5000000000002,-2332.5 625.5000000000002,-2338.5 625.5000000000002,-2344.5 625.5000000000002,-2350.5 625.5000000000002,-2356.5 625.5000000000002,-2362.5 625.5000000000002,-2368.5 625.5000000000002,-2374.5 625.5000000000002,-2380.5 625.5000000000002,-2386.5 625.5000000000002,-2392.5 625.5000000000002,-2398.5" stroke="black" stroke-linecap="round" stroke-width="10" /><polyline clip-path="url(#border_clip)" fill="none" points="625.5000000000002,-2398.5 625.5000000000002,-2404.5 625.5000000000002,-2410.5 625.5000000000002,-2416.5 625.5000000000002,-2422.5 625.5000000000002,-2428.5 625.5000000000002,-2434.5 625.5000000000002,-2440.5 625.5000000000002,-2446.5 625.5000000000002,-2452.5 625.5000000000002,-2458.5 625.5000000000002,-2464.5 625.5000000000002,-2470.5 625.5000000000002,-2476.5 625.5000000000002,-2482.5 625.5000000000002,-2488.5 625.5000000000002,-2494.5 625.5000000000002,-2500.5 625.5000000000002,-2506.5 625.5000000000002,-2512.5 625.5000000000002,-2518.5 625.5000000000002,-2524.5 625.5000000000002,-2530.5 625.5000000000002,-2536.5 625.5000000000002,-2542.5 625.5000000000002,-2548.5 625.5000000000002,-2554.5 625.5000000000002,-2560.5 625.5000000000002,-2566.5 625.5000000000002,-2572.5 625.5000000000002,-2578.5 625.5000000000002,-2584.5 625.5000000000002,-2590.5 625.5000000000002,-2596.5 625.5000000000002,-2602.5 625.5000000000002,-2608.5 625.5000000000002,-2614.5 625.5000000000002,-2620.5 625.5000000000002,-2626.5 625.5000000000002,-2632.5 625.5000000000002,-2638.5 625.5000000000002,-2644.5 625.5000000000002,-2650.5" stroke="black" stroke-linecap="round" stroke-width="10" /><polyline clip-path="url(#border_clip)" fill="none" points="625.5000000000002,-2650.5 625.5000000000002,-2656.5 625.5000000000002,-2662.5 625.5000000000002,-2668.5 625.5000000000002,-2674.5 625.5000000000002,-2680.5 625.5000000000002,-2686.5 625.5000000000002,-2692.5 625.5000000000002,-2698.5 625.5000000000002,-2704.5 625.5000000000002,-2710.5 625.5000000000002,-2716.5 625.5000000000002,-2722.5 625.5000000000002,-2728.5 625.5000000000002,-2734.5 625.5000000000002,-2740.5 625.5000000000002,-2746.5 625.5000000000002,-2752.5 625.5000000000002,-2758.5 625.5000000000002,-2764.5 625.5000000000002,-2770.5 625.5000000000002,-2776.5 625.5000000000002,-2782.5 625.5000000000002,-2788.5 625.5000000000002,-2794.5 625.5000000000002,-2800.5 625.5000000000002,-2806.5 625.5000000000002,-2812.5 625.5000000000002,-2818.5 625.5000000000002,-2824.5 625.5000000000002,-2830.5 625.5000000000002,-2836.5 625.5000000000002,-2842.5 625.5000000000002,-2848.5 625.5000000000002,-2854.5 625.5000000000002,-2860.5 625.5000000000002,-2866.5 625.5000000000002,-2872.5 625.5000000000002,-2878.5 625.5000000000002,-2884.5 625.5000000000002,-2890.5 625.5000000000002,-2896.5 625.5000000000002,-2902.5" stroke="black" stroke-linecap="round" stroke-width="10" /><polyline clip-path="url(#border_clip)" fill="none" points="625.5000000000002,-2902.5 625.5000000000002,-2908.5 625.5000000000002,-2914.5 625.5000000000002,-2920.5 625.5000000000002,-2926.5 625.5000000000002,-2932.5 625.5000000000002,-2938.5 625.5000000000002,-2944.5 625.5000000000002,-2950.5 625.5000000000002,-2956.5 625.5000000000002,-2962.5 625.5000000000002,-2968.5 625.5000000000002,-2974.5 625.5000000000002,-2980.5 625.5000000000002,-2986.5 625.5000000000002,-2992.5 625.5000000000002,-2998.5 625.5000000000002,-3004.5 625.5000000000002,-3010.5 625.5000000000002,-3016.5 625.5000000000002,-3022.5 625.5000000000002,-3028.5 625.5000000000002,-3034.5 625.5000000000002,-3040.5 625.5000000000002,-3046.5 625.5000000000002,-3052.5 625.5000000000002,-3058.5 625.5000000000002,-3064.5 625.5000000000002,-3070.5 625.5000000000002,-3076.5 625.5000000000002,-3082.5 625.5000000000002,-3088.5 625.5000000000002,-3094.5 625.5000000000002,-3100.5 625.5000000000002,-3106.5 625.5000000000002,-3112.5 625.5000000000002,-3118.5 625.5000000000002,-3124.5 625.5000000000002,-3130.5 625.5000000000002,-3136.5 625.5000000000002,-3142.5 625.5000000000002,-3148.5 625.5000000000002,-3154.5" stroke="black" stroke-linecap="round" stroke-width="10" /><polyline clip-path="url(#border_clip)" fill="none" points="625.5000000000002,-3154.5 625.5000000000002,-3160.5 625.5000000000002,-3166.5 625.5000000000002,-3172.5 625.5000000000002,-3178.5 625.5000000000002,-3184.5 625.5000000000002,-3190.5 625.5000000000002,-3196.5 625.5000000000002,-3202.5 625.5000000000002,-3208.5 625.5000000000002,-3214.5 625.5000000000002,-3220.5 625.5000000000002,-3226.5 625.5000000000002,-3232.5 625.5000000000002,-3238.5 625.5000000000002,-3244.5 625.5000000000002,-3250.5 625.5000000000002,-3256.5 625.5000000000002,-3262.5 625.5000000000002,-3268.5 625.5000000000002,-3274.5 625.5000000000002,-3280.5 625.5000000000002,-3286.5 625.5000000000002,-3292.5 625.5000000000002,-3298.5 625.5000000000002,-3304.5 625.5000000000002,-3310.5 625.5000000000002,-3316.5 625.5000000000002,-3322.5 625.5000000000002,-3328.5 625.5000000000002,-3334.5 625.5000000000002,-3340.5 625.5000000000002,-3346.5 625.5000000000002,-3352.5 625.5000000000002,-3358.5 625.5000000000002,-3364.5 625.5000000000002,-3370.5 625.5000000000002,-3376.5 625.5000000000002,-3382.5 625.5000000000002,-3388.5 625.5000000000002,-3394.5 625.5000000000002,-3400.5 625.5000000000002,-3406.5" stroke="black" stroke-linecap="round" stroke-width="10" /><polyline clip-path="url(#border_clip)" fill="none" points="625.5000000000002,-3406.5 625.5000000000002,-3412.5 625.5000000000002,-3418.5 625.5000000000002,-3424.5 625.5000000000002,-3430.5 625.5000000000002,-3436.5 625.5000000000002,-3442.5 625.5000000000002,-3448.5 625.5000000000002,-3454.5 625.5000000000002,-3460.5 625.5000000000002,-3466.5 625.5000000000002,-3472.5 625.5000000000002,-3478.5 625.5000000000002,-3484.5 625.5000000000002,-3490.5 625.5000000000002,-3496.5 625.5000000000002,-3502.5 625.5000000000002,-3508.5 625.5000000000002,-3514.5 625.5000000000002,-3520.5 625.5000000000002,-3526.5 625.5000000000002,-3532.5 625.5000000000002,-3538.5 625.5000000000002,-3544.5 625.5000000000002,-3550.5 625.5000000000002,-3556.5 625.5000000000002,-3562.5 625.5000000000002,-3568.5 625.5000000000002,-3574.5 625.5000000000002,-3580.5 625.5000000000002,-3586.5 625.5000000000002,-3592.5 625.5000000000002,-3598.5 625.5000000000002,-3604.5 625.5000000000002,-3610.5 625.5000000000002,-3616.5 625.5000000000002,-3622.5 625.5000000000002,-3628.5 625.5000000000002,-3634.5 625.5000000000002,-3640.5 625.5000000000002,-3646.5 625.5000000000002,-3652.5 625.5000000000002,-3658.5" stroke="black" stroke-linecap="round" stroke-width="10" /><polyline clip-path="url(#border_clip)" fill="none" points="625.5000000000002,-3658.5 625.5000000000002,-3664.5 625.5000000000002,-3670.5 625.5000000000002,-3676.5 625.5000000000002,-3682.5 625.5000000000002,-3688.5 625.5000000000002,-3694.5 625.5000000000002,-3700.5 625.5000000000002,-3706.5 625.5000000000002,-3712.5 625.5000000000002,-3718.5 625.5000000000002,-3724.5 625.5000000000002,-3730.5 625.5000000000002,-3736.5 625.5000000000002,-3742.5 625.5000000000002,-3748.5 625.5000000000002,-3754.5 625.5000000000002,-3760.5 625.5000000000002,-3766.5 625.5000000000002,-3772.5 625.5000000000002,-3778.5 625.5000000000002,-3784.5 625.5000000000002,-3790.5 625.5000000000002,-3796.5 625.5000000000002,-3802.5 625.5000000000002,-3808.5 625.5000000000002,-3814.5 625.5000000000002,-3820.5 625.5000000000002,-3826.5 625.5000000000002,-3832.5 625.5000000000002,-3838.5 625.5000000000002,-3844.5 625.5000000000002,-3850.5 625.5000000000002,-3856.5 625.5000000000002,-3862.5 625.5000000000002,-3868.5 625.5000000000002,-3874.5 625.5000000000002,-3880.5 625.5000000000002,-3886.5 625.5000000000002,-3892.5 625.5000000000002,-3898.5 625.5000000000002,-3904.5 625.5000000000002,-3910.5" stroke="black" stroke-linecap="round" stroke-width="10" /><polyline clip-path="url(#border_clip)" fill="none" points="625.5000000000002,-3910.5 625.5000000000002,-3916.5 625.5000000000002,-3922.5 625.5000000000002,-3928.5 625.5000000000002,-3934.5 625.5000000000002,-3940.5 625.5000000000002,-3946.5 625.5000000000002,-3952.5 625.5000000000002,-3958.5 625.5000000000002,-3964.5 625.5000000000002,-3970.5 625.5000000000002,-3976.5 625.5000000000002,-3982.5 625.5000000000002,-3988.5 625.5000000000002,-3994.5 625.5000000000002,-4000.5 625.5000000000002,-4006.5 625.5000000000002,-4012.5 625.5000000000003,-4018.5 625.5000000000003,-4024.5 625.5000000000003,-4030.5 625.5000000000003,-4036.5 625.5000000000003,-4042.5 625.5000000000003,-4048.5 625.5000000000003,-4054.5 625.5000000000003,-4060.5 625.5000000000003,-4066.5 625.5000000000003,-4072.5 625.5000000000003,-4078.5 625.5000000000003,-4084.5 625.5000000000003,-4090.5 625.5000000000003,-4096.5 625.5000000000003,-4102.5 625.5000000000003,-4108.5 625.5000000000003,-4114.5 625.5000000000003,-4120.5 625.5000000000003,-4126.5 625.5000000000003,-4132.5 625.5000000000003,-4138.5 625.5000000000003,-4144.5 625.5000000000003,-4150.5 625.5000000000003,-4156.5 625.5000000000003,-4162.5" stroke="black" stroke-linecap="round" stroke-width="10" /><polyline clip-path="url(#border_clip)" fill="none" points="625.5000000000003,-4162.5 625.5000000000003,-4168.5 625.5000000000003,-4174.5 625.5000000000003,-4180.5 625.5000000000003,-4186.5 625.5000000000003,-4192.5 625.5000000000003,-4198.5 625.5000000000003,-4204.5 625.5000000000003,-4210.5 625.5000000000003,-4216.5 625.5000000000003,-4222.5 625.5000000000003,-4228.5 625.5000000000003,-4234.5 625.5000000000003,-4240.5 625.5000000000003,-4246.5 625.5000000000003,-4252.5 625.5000000000003,-4258.5 625.5000000000003,-4264.5 625.5000000000003,-4270.5 625.5000000000003,-4276.5 625.5000000000003,-4282.5 625.5000000000003,-4288.5 625.5000000000003,-4294.5 625.5000000000003,-4300.5 625.5000000000003,-4306.5 625.5000000000003,-4312.5 625.5000000000003,-4318.5 625.5000000000003,-4324.5 625.5000000000003,-4330.5 625.5000000000003,-4336.5 625.5000000000003,-4342.5 625.5000000000003,-4348.5 625.5000000000003,-4354.5 625.5000000000003,-4360.5 625.5000000000003,-4366.5 625.5000000000003,-4372.5 625.5000000000003,-4378.5 625.5000000000003,-4384.5 625.5000000000003,-4390.5 625.5000000000003,-4396.5 625.5000000000003,-4402.5 625.5000000000003,-4408.5 625.5000000000003,-4414.5" stroke="black" stroke-linecap="round" stroke-width="10" /><polyline clip-path="url(#border_clip)" fill="none" points="625.5000000000003,-4414.5 625.5000000000003,-4420.5 625.5000000000003,-4426.5 625.5000000000003,-4432.5 625.5000000000003,-4438.5 625.5000000000003,-4444.5 625.5000000000003,-4450.5 625.5000000000003,-4456.5 625.5000000000003,-4462.5 625.5000000000003,-4468.5 625.5000000000003,-4474.5 625.5000000000003,-4480.5 625.5000000000003,-4486.5 625.5000000000003,-4492.5 625.5000000000003,-4498.5 625.5000000000003,-4504.5 625.5000000000003,-4510.5 625.5000000000003,-4516.5 625.5000000000003,-4522.5 625.5000000000003,-4528.5 625.5000000000003,-4534.5 625.5000000000003,-4540.5 625.5000000000003,-4546.5 625.5000000000003,-4552.5 625.5000000000003,-4558.5 625.5000000000003,-4564.5 625.5000000000003,-4570.5 625.5000000000003,-4576.5 625.5000000000003,-4582.5 625.5000000000003,-4588.5 625.5000000000003,-4594.5 625.5000000000003,-4600.5 625.5000000000003,-4606.5 625.5000000000003,-4612.5 625.5000000000003,-4618.5 625.5000000000003,-4624.5 625.5000000000003,-4630.5 625.5000000000003,-4636.5 625.5000000000003,-4642.5 625.5000000000003,-4648.5 625.5000000000003,-4654.5 625.5000000000003,-4660.5 625.5000000000003,-4666.5" stroke="black" stroke-linecap="round" stroke-width="10" /><polyline clip-path="url(#border_clip)" fill="none" points="625.5000000000003,-4666.5 625.5000000000003,-4672.5 625.5000000000003,-4678.5 625.5000000000003,-4684.5 625.5000000000003,-4690.5 625.5000000000003,-4696.5 625.5000000000003,-4702.5 625.5000000000003,-4708.5 625.5000000000003,-4714.5 625.5000000000003,-4720.5 625.5000000000003,-4726.5 625.5000000000003,-4732.5 625.5000000000003,-4738.5 625.5000000000003,-4744.5 625.5000000000003,-4750.5 625.5000000000003,-4756.5 625.5000000000003,-4762.5 625.5000000000003,-4768.5 625.5000000000003,-4774.5 625.5000000000003,-4780.5 625.5000000000003,-4786.5 625.5000000000003,-4792.5 625.5000000000003,-4798.5 625.5000000000003,-4804.5 625.5000000000003,-4810.5 625.5000000000003,-4816.5 625.5000000000003,-4822.5 625.5000000000003,-4828.5 625.5000000000003,-4834.5 625.5000000000003,-4840.5 625.5000000000003,-4846.5 625.5000000000003,-4852.5 625.5000000000003,-4858.5 625.5000000000003,-4864.5 625.5000000000003,-4870.5 625.5000000000003,-4876.5 625.5000000000003,-4882.5 625.5000000000003,-4888.5 625.5000000000003,-4894.5 625.5000000000003,-4900.5 625.5000000000003,-4906.5 625.5000000000003,-4912.5 625.5000000000003,-4918.5" stroke="black" stroke-linecap="round" stroke-width="10" /><polyline clip-path="url(#border_clip)" fill="none" points="625.5000000000003,-4918.5 625.5000000000003,-4924.5 625.5000000000003,-4930.5 625.5000000000003,-4936.5 625.5000000000003,-4942.5 625.5000000000003,-4948.5 625.5000000000003,-4954.5 625.5000000000003,-4960.5 625.5000000000003,-4966.5 625.5000000000003,-4972.5 625.5000000000003,-4978.5 625.5000000000003,-4984.5 625.5000000000003,-4990.5 625.5000000000003,-4996.5 625.5000000000003,-5002.5 625.5000000000003,-5008.5 625.5000000000003,-5014.5 625.5000000000003,-5020.5 625.5000000000003,-5026.5 625.5000000000003,-5032.5 625.5000000000003,-5038.5 625.5000000000003,-5044.5 625.5000000000003,-5050.5 625.5000000000003,-5056.5 625.5000000000003,-5062.5 625.5000000000003,-5068.5 625.5000000000003,-5074.5 625.5000000000003,-5080.5 625.5000000000003,-5086.5 625.5000000000003,-5092.5 625.5000000000003,-5098.5 625.5000000000003,-5104.5 625.5000000000003,-5110.5 625.5000000000003,-5116.5 625.5000000000003,-5122.5 625.5000000000003,-5128.5 625.5000000000003,-5134.5 625.5000000000003,-5140.5 625.5000000000003,-5146.5 625.5000000000003,-5152.5 625.5000000000003,-5158.5 625.5000000000003,-5164.5 625.5000000000003,-5170.5" stroke="black" stroke-linecap="round" stroke-width="10" /><polyline clip-path="url(#border_clip)" fill="none" points="625.5000000000003,-5170.5 625.5000000000003,-5176.5 625.5000000000003,-5182.5 625.5000000000003,-5188.5 625.5000000000003,-5194.5 625.5000000000003,-5200.5 625.5000000000003,-5206.5 625.5000000000003,-5212.5 625.5000000000003,-5218.5 625.5000000000003,-5224.5 625.5000000000003,-5230.5 625.5000000000003,-5236.5 625.5000000000003,-5242.5 625.5000000000003,-5248.5 625.5000000000003,-5254.5 625.5000000000003,-5260.5 625.5000000000003,-5266.5 625.5000000000003,-5272.5 625.5000000000003,-5278.5 625.5000000000003,-5284.5 625.5000000000003,-5290.5 625.5000000000003,-5296.5 625.5000000000003,-5302.5 625.5000000000003,-5308.5 625.5000000000003,-5314.5 625.5000000000003,-5320.5 625.5000000000003,-5326.5 625.5000000000003,-5332.5 625.5000000000003,-5338.5 625.5000000000003,-5344.5 625.5000000000003,-5350.5 625.5000000000003,-5356.5 625.5000000000003,-5362.5 625.5000000000003,-5368.5 625.5000000000003,-5374.5 625.5000000000003,-5380.5 625.5000000000003,-5386.5 625.5000000000003,-5392.5 625.5000000000003,-5398.5 625.5000000000003,-5404.5 625.5000000000003,-5410.5 625.5000000000003,-5416.5 625.5000000000003,-5422.5" stroke="black" stroke-linecap="round" stroke-width="10" /><polyline clip-path="url(#border_clip)" fill="none" points="625.5000000000003,-5422.5 625.5000000000003,-5428.5 625.5000000000003,-5434.5 625.5000000000003,-5440.5 625.5000000000003,-5446.5 625.5000000000003,-5452.5 625.5000000000003,-5458.5 625.5000000000003,-5464.5 625.5000000000003,-5470.5 625.5000000000003,-5476.5 625.5000000000003,-5482.5 625.5000000000003,-5488.5 625.5000000000003,-5494.5 625.5000000000003,-5500.5 625.5000000000003,-5506.5 625.5000000000003,-5512.5 625.5000000000003,-5518.5 625.5000000000003,-5524.5 625.5000000000003,-5530.5 625.5000000000003,-5536.5 625.5000000000003,-5542.5 625.5000000000003,-5548.5 625.5000000000003,-5554.5 625.5000000000003,-5560.5 625.5000000000003,-5566.5 625.5000000000003,-5572.5 625.5000000000003,-5578.5 625.5000000000003,-5584.5 625.5000000000003,-5590.5 625.5000000000003,-5596.5 625.5000000000003,-5602.5 625.5000000000003,-5608.5 625.5000000000003,-5614.5 625.5000000000003,-5620.5 625.5000000000003,-5626.5 625.5000000000003,-5632.5 625.5000000000003,-5638.5 625.5000000000003,-5644.5 625.5000000000003,-5650.5 625.5000000000003,-5656.5 625.5000000000003,-5662.5 625.5000000000003,-5668.5 625.5000000000003,-5674.5" stroke="black" stroke-linecap="round" stroke-width="10" /><polyline clip-path="url(#border_clip)" fill="none" points="625.5000000000003,-5674.5 625.5000000000003,-5680.5 625.5000000000003,-5686.5 625.5000000000003,-5692.5 625.5000000000003,-5698.5 625.5000000000003,-5704.5 625.5000000000003,-5710.5 625.5000000000003,-5716.5 625.5000000000003,-5722.5 625.5000000000003,-5728.5 625.5000000000003,-5734.5 625.5000000000003,-5740.5 625.5000000000003,-5746.5 625.5000000000003,-5752.5 625.5000000000003,-5758.5 625.5000000000003,-5764.5 625.5000000000003,-5770.5 625.5000000000003,-5776.5 625.5000000000003,-5782.5 625.5000000000003,-5788.5 625.5000000000003,-5794.5 625.5000000000003,-5800.5 625.5000000000003,-5806.5 625.5000000000003,-5812.5 625.5000000000003,-5818.5 625.5000000000003,-5824.5 625.5000000000003,-5830.5 625.5000000000003,-5836.5 625.5000000000003,-5842.5 625.5000000000003,-5848.5 625.5000000000003,-5854.5 625.5000000000003,-5860.5 625.5000000000003,-5866.5 625.5000000000003,-5872.5 625.5000000000005,-5878.5 625.5000000000005,-5884.5 625.5000000000005,-5890.5 625.5000000000005,-5896.5 625.5000000000005,-5902.5 625.5000000000005,-5908.5 625.5000000000005,-5914.5 625.5000000000005,-5920.5 625.5000000000005,-5926.5" stroke="black" stroke-linecap="round" stroke-width="10" /><polyline clip-path="url(#border_clip)" fill="none" points="625.5000000000005,-5926.5 625.5000000000005,-5932.5 625.5000000000005,-5938.5 625.5000000000005,-5944.5 625.5000000000005,-5950.5 625.5000000000005,-5956.5 625.5000000000005,-5962.5 625.5000000000005,-5968.5 625.5000000000005,-5974.5 625.5000000000005,-5980.5 625.5000000000005,-5986.5 625.5000000000005,-5992.5 625.5000000000005,-5998.5 625.5000000000005,-6004.5 625.5000000000005,-6010.5 625.5000000000005,-6016.5 625.5000000000005,-6022.5 625.5000000000005,-6028.5 625.5000000000005,-6034.5 625.5000000000005,-6040.5 625.5000000000005,-6046.5 625.5000000000005,-6052.5 625.5000000000005,-6058.5 625.5000000000005,-6064.5 625.5000000000005,-6070.5 625.5000000000005,-6076.5 625.5000000000005,-6082.5 625.5000000000005,-6088.5 625.5000000000005,-6094.5 625.5000000000005,-6100.5 625.5000000000005,-6106.5 625.5000000000005,-6112.5 625.5000000000005,-6118.5 625.5000000000005,-6124.5 625.5000000000005,-6130.5 625.5000000000005,-6136.5 625.5000000000005,-6142.5 625.5000000000005,-6148.5 625.5000000000005,-6154.5 625.5000000000005,-6160.5 625.5000000000005,-6166.5 625.5000000000005,-6172.5 625.5000000000005,-6178.5" stroke="black" stroke-linecap="round" stroke-width="10" /><polyline clip-path="url(#border_clip)" fill="none" points="625.5000000000005,-6178.5 625.5000000000005,-6184.5 625.5000000000005,-6190.5 625.5000000000005,-6196.5 625.5000000000005,-6202.5 625.5000000000005,-6208.5 625.5000000000005,-6214.5 625.5000000000005,-6220.5 625.5000000000005,-6226.5 625.5000000000005,-6232.5 625.5000000000005,-6238.5 625.5000000000005,-6244.5 625.5000000000005,-6250.5 625.5000000000005,-6256.5 625.5000000000005,-6262.5 625.5000000000005,-6268.5 625.5000000000005,-6274.5 625.5000000000005,-6280.5 625.5000000000005,-6286.5 625.5000000000005,-6292.5 625.5000000000005,-6298.5 625.5000000000005,-6304.5 625.5000000000005,-6310.5 625.5000000000005,-6316.5 625.5000000000005,-6322.5 625.5000000000005,-6328.5 625.5000000000005,-6334.5 625.5000000000005,-6340.5 625.5000000000005,-6346.5 625.5000000000005,-6352.5 625.5000000000005,-6358.5 625.5000000000005,-6364.5 625.5000000000005,-6370.5 625.5000000000005,-6376.5 625.5000000000005,-6382.5 625.5000000000005,-6388.5 625.5000000000005,-6394.5 625.5000000000005,-6400.5 625.5000000000005,-6406.5 625.5000000000005,-6412.5 625.5000000000005,-6418.5 625.5000000000005,-6424.5 625.5000000000005,-6430.5" stroke="black" stroke-linecap="round" stroke-width="10" /><polyline clip-path="url(#border_clip)" fill="none" points="625.5000000000005,-6430.5 625.5000000000005,-6436.5 625.5000000000005,-6442.5 625.5000000000005,-6448.5 625.5000000000005,-6454.5 625.5000000000005,-6460.5 625.5000000000005,-6466.5 625.5000000000005,-6472.5 625.5000000000005,-6478.5 625.5000000000005,-6484.5 625.5000000000005,-6490.5 625.5000000000005,-6496.5 625.5000000000005,-6502.5 625.5000000000005,-6508.5 625.5000000000005,-6514.5 625.5000000000005,-6520.5 625.5000000000005,-6526.5 625.5000000000005,-6532.5 625.5000000000005,-6538.5 625.5000000000005,-6544.5 625.5000000000005,-6550.5 625.5000000000005,-6556.5 625.5000000000005,-6562.5 625.5000000000005,-6568.5 625.5000000000005,-6574.5 625.5000000000005,-6580.5 625.5000000000005,-6586.5 625.5000000000005,-6592.5 625.5000000000005,-6598.5 625.5000000000005,-6604.5 625.5000000000005,-6610.5 625.5000000000005,-6616.5 625.5000000000005,-6622.5 625.5000000000005,-6628.5 625.5000000000005,-6634.5 625.5000000000005,-6640.5 625.5000000000005,-6646.5 625.5000000000005,-6652.5 625.5000000000005,-6658.5 625.5000000000005,-6664.5 625.5000000000005,-6670.5 625.5000000000005,-6676.5 625.5000000000005,-6682.5" stroke="black" stroke-linecap="round" stroke-width="10" /><polyline clip-path="url(#border_clip)" fill="none" points="625.5000000000005,-6682.5 625.5000000000005,-6688.5 625.5000000000005,-6694.5 625.5000000000005,-6700.5 625.5000000000005,-6706.5 625.5000000000005,-6712.5 625.5000000000005,-6718.5 625.5000000000005,-6724.5 625.5000000000005,-6730.5 625.5000000000005,-6736.5 625.5000000000005,-6742.5 625.5000000000005,-6748.5 625.5000000000005,-6754.5 625.5000000000005,-6760.5 625.5000000000005,-6766.5 625.5000000000005,-6772.5 625.5000000000005,-6778.5 625.5000000000005,-6784.5 625.5000000000005,-6790.5 625.5000000000005,-6796.5 625.5000000000005,-6802.5 625.5000000000005,-6808.5 625.5000000000005,-6814.5 625.5000000000005,-6820.5 625.5000000000005,-6826.5 625.5000000000005,-6832.5 625.5000000000005,-6838.5 625.5000000000005,-6844.5 625.5000000000005,-6850.5 625.5000000000005,-6856.5 625.5000000000005,-6862.5 625.5000000000005,-6868.5 625.5000000000005,-6874.5 625.5000000000005,-6880.5 625.5000000000005,-6886.5 625.5000000000005,-6892.5 625.5000000000005,-6898.5 625.5000000000005,-6904.5 625.5000000000005,-6910.5 625.5000000000005,-6916.5 625.5000000000005,-6922.5 625.5000000000005,-6928.5 625.5000000000005,-6934.5" stroke="black" stroke-linecap="round" stroke-width="10" /><polyline clip-path="url(#border_clip)" fill="none" points="625.5000000000005,-6934.5 625.5000000000005,-6940.5 625.5000000000005,-6946.5 625.5000000000005,-6952.5 625.5000000000005,-6958.5 625.5000000000005,-6964.5 625.5000000000005,-6970.5 625.5000000000005,-6976.5 625.5000000000005,-6982.5 625.5000000000005,-6988.5 625.5000000000005,-6994.5 625.5000000000005,-7000.5 625.5000000000005,-7006.5 625.5000000000005,-7012.5 625.5000000000005,-7018.5 625.5000000000005,-7024.5 625.5000000000005,-7030.5 625.5000000000005,-7036.5 625.5000000000005,-7042.5 625.5000000000005,-7048.5 625.5000000000005,-7054.5 625.5000000000005,-7060.5 625.5000000000005,-7066.5 625.5000000000005,-7072.5 625.5000000000005,-7078.5 625.5000000000005,-7084.5 625.5000000000005,-7090.5 625.5000000000005,-7096.5 625.5000000000005,-7102.5 625.5000000000005,-7108.5 625.5000000000005,-7114.5 625.5000000000005,-7120.5 625.5000000000005,-7126.5 625.5000000000005,-7132.5 625.5000000000005,-7138.5 625.5000000000005,-7144.5 625.5000000000005,-7150.5 625.5000000000005,-7156.5 625.5000000000005,-7162.5 625.5000000000005,-7168.5 625.5000000000005,-7174.5 625.5000000000005,-7180.5 625.5000000000005,-7186.5" stroke="black" stroke-linecap="round" stroke-width="10" /><polyline clip-path="url(#border_clip)" fill="none" points="625.5000000000005,-7186.5 625.5000000000005,-7192.5 625.5000000000005,-7198.5 625.5000000000005,-7204.5 625.5000000000005,-7210.5 625.5000000000005,-7216.5 625.5000000000005,-7222.5 625.5000000000005,-7228.5 625.5000000000005,-7234.5 625.5000000000005,-7240.5 625.5000000000005,-7246.5 625.5000000000005,-7252.5 625.5000000000005,-7258.5 625.5000000000005,-7264.5 625.5000000000005,-7270.5 625.5000000000005,-7276.5 625.5000000000005,-7282.5 625.5000000000005,-7288.5 625.5000000000005,-7294.5 625.5000000000005,-7300.5 625.5000000000005,-7306.5 625.5000000000005,-7312.5 625.5000000000005,-7318.5 625.5000000000005,-7324.5 625.5000000000005,-7330.5 625.5000000000005,-7336.5 625.5000000000005,-7342.5 625.5000000000005,-7348.5 625.5000000000005,-7354.5 625.5000000000005,-7360.5 625.5000000000005,-7366.5 625.5000000000005,-7372.5 625.5000000000005,-7378.5 625.5000000000005,-7384.5 625.5000000000005,-7390.5 625.5000000000005,-7396.5 625.5000000000005,-7402.5 625.5000000000005,-7408.5 625.5000000000005,-7414.5 625.5000000000005,-7420.5 625.5000000000005,-7426.5 625.5000000000005,-7432.5 625.5000000000005,-7438.5" stroke="black" stroke-linecap="round" stroke-width="10" /><polyline clip-path="url(#border_clip)" fill="none" points="625.5000000000005,-7438.5 625.5000000000005,-7444.5 625.5000000000005,-7450.5 625.5000000000005,-7456.5 625.5000000000005,-7462.5 625.5000000000005,-7468.5 625.5000000000005,-7474.5 625.5000000000005,-7480.5 625.5000000000005,-7486.5 625.5000000000005,-7492.5 625.5000000000005,-7498.5 625.5000000000005,-7504.5 625.5000000000005,-7510.5 625.5000000000005,-7516.5 625.5000000000005,-7522.5 625.5000000000005,-7528.5 625.5000000000005,-7534.5 625.5000000000005,-7540.5 625.5000000000005,-7546.5 625.5000000000005,-7552.5 625.5000000000005,-7558.5 625.5000000000005,-7564.5 625.5000000000005,-7570.5 625.5000000000005,-7576.5 625.5000000000005,-7582.5 625.5000000000005,-7588.5 625.5000000000005,-7594.5 625.5000000000005,-7600.5 625.5000000000005,-7606.5 625.5000000000005,-7612.5 625.5000000000005,-7618.5 625.5000000000005,-7624.5 625.5000000000005,-7630.5 625.5000000000005,-7636.5 625.5000000000005,-7642.5 625.5000000000005,-7648.5 625.5000000000005,-7654.5 625.5000000000005,-7660.5 625.5000000000005,-7666.5 625.5000000000005,-7672.5 625.5000000000005,-7678.5 625.5000000000005,-7684.5 625.5000000000005,-7690.5" stroke="black" stroke-linecap="round" stroke-width="10" /><polyline clip-path="url(#border_clip)" fill="none" points="625.5000000000005,-7690.5 625.5000000000005,-7696.5 625.5000000000005,-7702.5 625.5000000000005,-7708.5 625.5000000000005,-7714.5 625.5000000000005,-7720.5 625.5000000000005,-7726.5 625.5000000000006,-7732.5 625.5000000000006,-7738.5 625.5000000000006,-7744.5 625.5000000000006,-7750.5 625.5000000000006,-7756.5 625.5000000000006,-7762.5 625.5000000000006,-7768.5 625.5000000000006,-7774.5 625.5000000000006,-7780.5 625.5000000000006,-7786.5 625.5000000000006,-7792.5 625.5000000000006,-7798.5 625.5000000000006,-7804.5 625.5000000000006,-7810.5 625.5000000000006,-7816.5 625.5000000000006,-7822.5 625.5000000000006,-7828.5 625.5000000000006,-7834.5 625.5000000000006,-7840.5 625.5000000000006,-7846.5 625.5000000000006,-7852.5 625.5000000000006,-7858.5 625.5000000000006,-7864.5 625.5000000000006,-7870.5 625.5000000000006,-7876.5 625.5000000000006,-7882.5 625.5000000000006,-7888.5 625.5000000000006,-7894.5 625.5000000000006,-7900.5 625.5000000000006,-7906.5 625.5000000000006,-7912.5 625.5000000000006,-7918.5 625.5000000000006,-7924.5 625.5000000000006,-7930.5 625.5000000000006,-7936.5 625.5000000000006,-7942.5" stroke="black" stroke-linecap="round" stroke-width="10" /><polyline clip-path="url(#border_clip)" fill="none" points="625.5000000000006,-7942.5 625.5000000000006,-7948.5 625.5000000000006,-7954.5 625.5000000000006,-7960.5 625.5000000000006,-7966.5 625.5000000000006,-7972.5 625.5000000000006,-7978.5 625.5000000000006,-7984.5 625.5000000000006,-7990.5 625.5000000000006,-7996.5 625.5000000000006,-8002.5 625.5000000000006,-8008.5 625.5000000000006,-8014.5 625.5000000000006,-8020.5 625.5000000000006,-8026.5 625.5000000000006,-8032.5 625.5000000000006,-8038.5 625.5000000000006,-8044.5 625.5000000000006,-8050.5 625.5000000000006,-8056.5 625.5000000000006,-8062.5 625.5000000000006,-8068.5 625.5000000000006,-8074.5 625.5000000000006,-8080.5 625.5000000000006,-8086.5 625.5000000000006,-8092.5 625.5000000000006,-8098.5 625.5000000000006,-8104.5 625.5000000000006,-8110.5 625.5000000000006,-8116.5 625.5000000000006,-8122.5 625.5000000000006,-8128.5 625.5000000000006,-8134.5 625.5000000000006,-8140.5 625.5000000000006,-8146.5 625.5000000000006,-8152.5 625.5000000000006,-8158.5 625.5000000000006,-8164.5 625.5000000000006,-8170.5 625.5000000000006,-8176.5 625.5000000000006,-8182.5 625.5000000000006,-8188.5 625.5000000000006,-8194.5" stroke="black" stroke-linecap="round" stroke-width="10" /><polyline clip-path="url(#border_clip)" fill="none" points="625.5000000000006,-8194.5 625.5000000000006,-8200.5 625.5000000000006,-8206.5 625.5000000000006,-8212.5 625.5000000000006,-8218.5 625.5000000000006,-8224.5 625.5000000000006,-8230.5 625.5000000000006,-8236.5 625.5000000000006,-8242.5 625.5000000000006,-8248.5 625.5000000000006,-8254.5 625.5000000000006,-8260.5 625.5000000000006,-8266.5 625.5000000000006,-8272.5 625.5000000000006,-8278.5 625.5000000000006,-8284.5 625.5000000000006,-8290.5 625.5000000000006,-8296.5 625.5000000000006,-8302.5 625.5000000000006,-8308.5 625.5000000000006,-8314.5 625.5000000000006,-8320.5 625.5000000000006,-8326.5 625.5000000000006,-8332.5 625.5000000000006,-8338.5 625.5000000000006,-8344.5 625.5000000000006,-8350.5 625.5000000000006,-8356.5 625.5000000000006,-8362.5 625.5000000000006,-8368.5 625.5000000000006,-8374.5 625.5000000000006,-8380.5 625.5000000000006,-8386.5 625.5000000000006,-8392.5 625.5000000000006,-8398.5 625.5000000000006,-8404.5 625.5000000000006,-8410.5 625.5000000000006,-8416.5 625.5000000000006,-8422.5 625.5000000000006,-8428.5 625.5000000000006,-8434.5 625.5000000000006,-8440.5 625.5000000000006,-8446.5" stroke="black" stroke-linecap="round" stroke-width="10" /><polyline clip-path="url(#border_clip)" fill="none" points="625.5000000000006,-8446.5 625.5000000000006,-8452.5 625.5000000000006,-8458.5 625.5000000000006,-8464.5 625.5000000000006,-8470.5 625.5000000000006,-8476.5 625.5000000000006,-8482.5 625.5000000000006,-8488.5 625.5000000000006,-8494.5 625.5000000000006,-8500.5 625.5000000000006,-8506.5 625.5000000000006,-8512.5 625.5000000000006,-8518.5 625.5000000000006,-8524.5 625.5000000000006,-8530.5 625.5000000000006,-8536.5 625.5000000000006,-8542.5 625.5000000000006,-8548.5 625.5000000000006,-8554.5 625.5000000000006,-8560.5 625.5000000000006,-8566.5 625.5000000000006,-8572.5 625.5000000000006,-8578.5 625.5000000000006,-8584.5 625.5000000000006,-8590.5 625.5000000000006,-8596.5 625.5000000000006,-8602.5 625.5000000000006,-8608.5 625.5000000000006,-8614.5 625.5000000000006,-8620.5 625.5000000000006,-8626.5 625.5000000000006,-8632.5 625.5000000000006,-8638.5 625.5000000000006,-8644.5 625.5000000000006,-8650.5 625.5000000000006,-8656.5 625.5000000000006,-8662.5 625.5000000000006,-8668.5 625.5000000000006,-8674.5 625.5000000000006,-8680.5 625.5000000000006,-8686.5 625.5000000000006,-8692.5 625.5000000000006,-8698.5" stroke="black" stroke-linecap="round" stroke-width="10" /><polyline clip-path="url(#border_clip)" fill="none" points="625.5000000000006,-8698.5 625.5000000000006,-8704.5 625.5000000000006,-8710.5 625.5000000000006,-8716.5 625.5000000000006,-8722.5 625.5000000000006,-8728.5 625.5000000000006,-8734.5 625.5000000000006,-8740.5 625.5000000000006,-8746.5 625.5000000000006,-8752.5 625.5000000000006,-8758.5 625.5000000000006,-8764.5 625.5000000000006,-8770.5 625.5000000000006,-8776.5 625.5000000000006,-8782.5 625.5000000000006,-8788.5 625.5000000000006,-8794.5 625.5000000000006,-8800.5 625.5000000000006,-8806.5 625.5000000000006,-8812.5 625.5000000000006,-8818.5 625.5000000000006,-8824.5 625.5000000000006,-8830.5 625.5000000000006,-8836.5 625.5000000000006,-8842.5 625.5000000000006,-8848.5 625.5000000000006,-8854.5 625.5000000000006,-8860.5 625.5000000000006,-8866.5 625.5000000000006,-8872.5 625.5000000000006,-8878.5 625.5000000000006,-8884.5 625.5000000000006,-8890.5 625.5000000000006,-8896.5 625.5000000000006,-8902.5 625.5000000000006,-8908.5 625.5000000000006,-8914.5 625.5000000000006,-8920.5 625.5000000000006,-8926.5 625.5000000000006,-8932.5 625.5000000000006,-8938.5 625.5000000000006,-8944.5 625.5000000000006,-8950.5" stroke="black" stroke-linecap="round" stroke-width="10" /><polyline clip-path="url(#border_clip)" fill="none" points="625.5000000000006,-8950.5 625.5000000000006,-8956.5 625.5000000000006,-8962.5 625.5000000000006,-8968.5 625.5000000000006,-8974.5 625.5000000000006,-8980.5 625.5000000000006,-8986.5 625.5000000000006,-8992.5 625.5000000000006,-8998.5 625.5000000000006,-9004.5 625.5000000000006,-9010.5 625.5000000000006,-9016.5 625.5000000000006,-9022.5 625.5000000000006,-9028.5 625.5000000000006,-9034.5 625.5000000000006,-9040.5 625.5000000000006,-9046.5 625.5000000000006,-9052.5 625.5000000000006,-9058.5 625.5000000000006,-9064.5 625.5000000000006,-9070.5 625.5000000000006,-9076.5 625.5000000000006,-9082.5 625.5000000000006,-9088.5 625.5000000000006,-9094.5 625.5000000000006,-9100.5 625.5000000000006,-9106.5 625.5000000000006,-9112.5 625.5000000000006,-9118.5 625.5000000000006,-9124.5 625.5000000000006,-9130.5 625.5000000000006,-9136.5 625.5000000000006,-9142.5 625.5000000000006,-9148.5 625.5000000000006,-9154.5 625.5000000000006,-9160.5 625.5000000000006,-9166.5 625.5000000000006,-9172.5 625.5000000000006,-9178.5 625.5000000000006,-9184.5 625.5000000000006,-9190.5 625.5000000000006,-9196.5 625.5000000000006,-9202.5" stroke="black" stroke-linecap="round" stroke-width="10" /><polyline clip-path="url(#border_clip)" fill="none" points="625.5000000000006,-9202.5 625.5000000000006,-9208.5 625.5000000000006,-9214.5 625.5000000000006,-9220.5 625.5000000000006,-9226.5 625.5000000000006,-9232.5 625.5000000000006,-9238.5 625.5000000000006,-9244.5 625.5000000000006,-9250.5 625.5000000000006,-9256.5 625.5000000000006,-9262.5 625.5000000000006,-9268.5 625.5000000000006,-9274.5 625.5000000000006,-9280.5 625.5000000000006,-9286.5 625.5000000000006,-9292.5 625.5000000000006,-9298.5 625.5000000000006,-9304.5 625.5000000000006,-9310.5 625.5000000000006,-9316.5 625.5000000000006,-9322.5 625.5000000000006,-9328.5 625.5000000000006,-9334.5 625.5000000000006,-9340.5 625.5000000000006,-9346.5 625.5000000000006,-9352.5 625.5000000000006,-9358.5 625.5000000000006,-9364.5 625.5000000000006,-9370.5 625.5000000000006,-9376.5 625.5000000000006,-9382.5 625.5000000000006,-9388.5 625.5000000000006,-9394.5 625.5000000000006,-9400.5 625.5000000000006,-9406.5 625.5000000000006,-9412.5 625.5000000000006,-9418.5 625.5000000000006,-9424.5 625.5000000000006,-9430.5 625.5000000000006,-9436.5 625.5000000000006,-9442.5 625.5000000000006,-9448.5 625.5000000000006,-9454.5" stroke="black" stroke-linecap="round" stroke-width="10" /><polyline clip-path="url(#border_clip)" fill="none" points="625.5000000000006,-9454.5 625.5000000000006,-9460.5 625.5000000000006,-9466.5 625.5000000000006,-9472.5 625.5000000000006,-9478.5 625.5000000000006,-9484.5 625.5000000000006,-9490.5 625.5000000000006,-9496.5 625.5000000000006,-9502.5 625.5000000000006,-9508.5 625.5000000000006,-9514.5 625.5000000000006,-9520.5 625.5000000000006,-9526.5 625.5000000000006,-9532.5 625.5000000000006,-9538.5 625.5000000000006,-9544.5 625.5000000000006,-9550.5 625.5000000000006,-9556.5 625.5000000000006,-9562.5 625.5000000000006,-9568.5 625.5000000000006,-9574.5 625.5000000000006,-9580.5 625.5000000000007,-9586.5 625.5000000000007,-9592.5 625.5000000000007,-9598.5 625.5000000000007,-9604.5 625.5000000000007,-9610.5 625.5000000000007,-9616.5 625.5000000000007,-9622.5 625.5000000000007,-9628.5 625.5000000000007,-9634.5 625.5000000000007,-9640.5 625.5000000000007,-9646.5 625.5000000000007,-9652.5 625.5000000000007,-9658.5 625.5000000000007,-9664.5 625.5000000000007,-9670.5 625.5000000000007,-9676.5 625.5000000000007,-9682.5 625.5000000000007,-9688.5 625.5000000000007,-9694.5 625.5000000000007,-9700.5 625.5000000000007,-9706.5" stroke="black" stroke-linecap="round" stroke-width="10" /><polyline clip-path="url(#border_clip)" fill="none" points="625.5000000000007,-9706.5 625.5000000000007,-9712.5 625.5000000000007,-9718.5 625.5000000000007,-9724.5 625.5000000000007,-9730.5 625.5000000000007,-9736.5 625.5000000000007,-9742.5 625.5000000000007,-9748.5 625.5000000000007,-9754.5 625.5000000000007,-9760.5 625.5000000000007,-9766.5 625.5000000000007,-9772.5 625.5000000000007,-9778.5 625.5000000000007,-9784.5 625.5000000000007,-9790.5 625.5000000000007,-9796.5 625.5000000000007,-9802.5 625.5000000000007,-9808.5 625.5000000000007,-9814.5 625.5000000000007,-9820.5 625.5000000000007,-9826.5 625.5000000000007,-9832.5 625.5000000000007,-9838.5 625.5000000000007,-9844.5 625.5000000000007,-9850.5 625.5000000000007,-9856.5 625.5000000000007,-9862.5 625.5000000000007,-9868.5 625.5000000000007,-9874.5 625.5000000000007,-9880.5 625.5000000000007,-9886.5 625.5000000000007,-9892.5 625.5000000000007,-9898.5 625.5000000000007,-9904.5 625.5000000000007,-9910.5 625.5000000000007,-9916.5 625.5000000000007,-9922.5 625.5000000000007,-9928.5 625.5000000000007,-9934.5 625.5000000000007,-9940.5 625.5000000000007,-9946.5 625.5000000000007,-9952.5 625.5000000000007,-9958.5" stroke="black" stroke-linecap="round" stroke-width="10" /><polyline clip-path="url(#border_clip)" fill="none" points="625.5000000000007,-9958.5 625.5000000000007,-9964.5 625.5000000000007,-9970.5 625.5000000000007,-9976.5 625.5000000000007,-9982.5 625.5000000000007,-9988.5 625.5000000000007,-9994.5 625.5000000000007,-10000.5 625.5000000000007,-10006.5 625.5000000000007,-10012.5 625.5000000000007,-10018.5 625.5000000000007,-10024.5 625.5000000000007,-10030.5 625.5000000000007,-10036.5 625.5000000000007,-10042.5 625.5000000000007,-10048.5 625.5000000000007,-10054.5 625.5000000000007,-10060.5 625.5000000000007,-10066.5 625.5000000000007,-10072.5 625.5000000000007,-10078.5 625.5000000000007,-10084.5 625.5000000000007,-10090.5 625.5000000000007,-10096.5 625.5000000000007,-10102.5 625.5000000000007,-10108.5 625.5000000000007,-10114.5 625.5000000000007,-10120.5 625.5000000000007,-10126.5 625.5000000000007,-10132.5 625.5000000000007,-10138.5 625.5000000000007,-10144.5 625.5000000000007,-10150.5 625.5000000000007,-10156.5 625.5000000000007,-10162.5 625.5000000000007,-10168.5 625.5000000000007,-10174.5 625.5000000000007,-10180.5 625.5000000000007,-10186.5 625.5000000000007,-10192.5 625.5000000000007,-10198.5 625.5000000000007,-10204.5 625.5000000000007,-10210.5" stroke="black" stroke-linecap="round" stroke-width="10" /><polyline clip-path="url(#border_clip)" fill="none" points="625.5000000000007,-10210.5 625.5000000000007,-10216.5 625.5000000000007,-10222.5 625.5000000000007,-10228.5 625.5000000000007,-10234.5 625.5000000000007,-10240.5 625.5000000000007,-10246.5 625.5000000000007,-10252.5 625.5000000000007,-10258.5 625.5000000000007,-10264.5 625.5000000000007,-10270.5 625.5000000000007,-10276.5 625.5000000000007,-10282.5 625.5000000000007,-10288.5 625.5000000000007,-10294.5 625.5000000000007,-10300.5 625.5000000000007,-10306.5 625.5000000000007,-10312.5 625.5000000000007,-10318.5 625.5000000000007,-10324.5 625.5000000000007,-10330.5 625.5000000000007,-10336.5 625.5000000000007,-10342.5 625.5000000000007,-10348.5 625.5000000000007,-10354.5 625.5000000000007,-10360.5 625.5000000000007,-10366.5 625.5000000000007,-10372.5 625.5000000000007,-10378.5 625.5000000000007,-10384.5 625.5000000000007,-10390.5 625.5000000000007,-10396.5 625.5000000000007,-10402.5 625.5000000000007,-10408.5 625.5000000000007,-10414.5 625.5000000000007,-10420.5 625.5000000000007,-10426.5 625.5000000000007,-10432.5 625.5000000000007,-10438.5 625.5000000000007,-10444.5 625.5000000000007,-10450.5 625.5000000000007,-10456.5 625.5000000000007,-10462.5" stroke="black" stroke-linecap="round" stroke-width="10" /><polyline clip-path="url(#border_clip)" fill="none" points="625.5000000000007,-10462.5 625.5000000000007,-10468.5 625.5000000000007,-10474.5 625.5000000000007,-10480.5 625.5000000000007,-10486.5 625.5000000000007,-10492.5 625.5000000000007,-10498.5 625.5000000000007,-10504.5 625.5000000000007,-10510.5 625.5000000000007,-10516.5 625.5000000000007,-10522.5 625.5000000000007,-10528.5 625.5000000000007,-10534.5 625.5000000000007,-10540.5 625.5000000000007,-10546.5 625.5000000000007,-10552.5 625.5000000000007,-10558.5 625.5000000000007,-10564.5 625.5000000000007,-10570.5 625.5000000000007,-10576.5 625.5000000000007,-10582.5 625.5000000000007,-10588.5 625.5000000000007,-10594.5 625.5000000000007,-10600.5 625.5000000000007,-10606.5 625.5000000000007,-10612.5 625.5000000000007,-10618.5 625.5000000000007,-10624.5 625.5000000000007,-10630.5 625.5000000000007,-10636.5 625.5000000000007,-10642.5 625.5000000000007,-10648.5 625.5000000000007,-10654.5 625.5000000000007,-10660.5 625.5000000000007,-10666.5 625.5000000000007,-10672.5 625.5000000000007,-10678.5 625.5000000000007,-10684.5 625.5000000000007,-10690.5 625.5000000000007,-10696.5 625.5000000000007,-10702.5 625.5000000000007,-10708.5 625.5000000000007,-10714.5" stroke="black" stroke-linecap="round" stroke-width="10" /><polyline clip-path="url(#border_clip)" fill="none" points="625.5000000000007,-10714.5 625.5000000000007,-10720.5 625.5000000000007,-10726.5 625.5000000000007,-10732.5 625.5000000000007,-10738.5 625.5000000000007,-10744.5 625.5000000000007,-10750.5 625.5000000000007,-10756.5 625.5000000000007,-10762.5 625.5000000000007,-10768.5 625.5000000000007,-10774.5 625.5000000000007,-10780.5 625.5000000000007,-10786.5 625.5000000000007,-10792.5 625.5000000000007,-10798.5 625.5000000000007,-10804.5 625.5000000000007,-10810.5 625.5000000000007,-10816.5 625.5000000000007,-10822.5 625.5000000000007,-10828.5 625.5000000000007,-10834.5 625.5000000000007,-10840.5 625.5000000000007,-10846.5 625.5000000000007,-10852.5 625.5000000000007,-10858.5 625.5000000000007,-10864.5 625.5000000000007,-10870.5 625.5000000000007,-10876.5 625.5000000000007,-10882.5 625.5000000000007,-10888.5 625.5000000000007,-10894.5 625.5000000000007,-10900.5 625.5000000000007,-10906.5 625.5000000000007,-10912.5 625.5000000000007,-10918.5 625.5000000000007,-10924.5 625.5000000000007,-10930.5 625.5000000000007,-10936.5 625.5000000000007,-10942.5 625.5000000000007,-10948.5 625.5000000000007,-10954.5 625.5000000000007,-10960.5 625.5000000000007,-10966.5" stroke="black" stroke-linecap="round" stroke-width="10" /><polyline clip-path="url(#border_clip)" fill="none" points="625.5000000000007,-10966.5 625.5000000000007,-10972.5 625.5000000000007,-10978.5 625.5000000000007,-10984.5 625.5000000000007,-10990.5 625.5000000000007,-10996.5 625.5000000000007,-11002.5 625.5000000000007,-11008.5 625.5000000000007,-11014.5 625.5000000000007,-11020.5 625.5000000000007,-11026.5 625.5000000000007,-11032.5 625.5000000000007,-11038.5 625.5000000000007,-11044.5 625.5000000000007,-11050.5 625.5000000000007,-11056.5 625.5000000000007,-11062.5 625.5000000000007,-11068.5 625.5000000000007,-11074.5 625.5000000000007,-11080.5 625.5000000000007,-11086.5 625.5000000000007,-11092.5 625.5000000000007,-11098.5 625.5000000000007,-11104.5 625.5000000000007,-11110.5 625.5000000000007,-11116.5 625.5000000000007,-11122.5 625.5000000000007,-11128.5 625.5000000000007,-11134.5 625.5000000000007,-11140.5 625.5000000000007,-11146.5 625.5000000000007,-11152.5 625.5000000000007,-11158.5 625.5000000000007,-11164.5 625.5000000000007,-11170.5 625.5000000000007,-11176.5 625.5000000000007,-11182.5 625.5000000000007,-11188.5 625.5000000000007,-11194.5 625.5000000000007,-11200.5 625.5000000000007,-11206.5 625.5000000000007,-11212.5 625.5000000000007,-11218.5" stroke="black" stroke-linecap="round" stroke-width="10" /><polyline clip-path="url(#border_clip)" fill="none" points="625.5000000000007,-11218.5 625.5000000000007,-11224.5 625.5000000000007,-11230.5 625.5000000000007,-11236.5 625.5000000000007,-11242.5 625.5000000000007,-11248.5 625.5000000000007,-11254.5 625.5000000000007,-11260.5 625.5000000000007,-11266.5 625.5000000000007,-11272.5 625.5000000000007,-11278.5 625.5000000000007,-11284.5 625.5000000000007,-11290.5 625.5000000000007,-11296.5 625.5000000000007,-11302.5 625.5000000000007,-11308.5 625.5000000000007,-11314.5 625.5000000000007,-11320.5 625.5000000000007,-11326.5 625.5000000000007,-11332.5 625.5000000000007,-11338.5 625.5000000000007,-11344.5 625.5000000000007,-11350.5 625.5000000000007,-11356.5 625.5000000000007,-11362.5 625.5000000000007,-11368.5 625.5000000000007,-11374.5 625.5000000000007,-11380.5 625.5000000000007,-11386.5 625.5000000000007,-11392.5 625.5000000000007,-11398.5 625.5000000000007,-11404.5 625.5000000000007,-11410.5 625.5000000000007,-11416.5 625.5000000000007,-11422.5 625.5000000000007,-11428.5 625.5000000000007,-11434.5 625.5000000000007,-11440.5 625.5000000000008,-11446.5 625.5000000000008,-11452.5 625.5000000000008,-11458.5 625.5000000000008,-11464.5 625.5000000000008,-11470.5" stroke="black" stroke-linecap="round" stroke-width="10" /><polyline clip-path="url(#border_clip)" fill="none" points="625.5000000000008,-11470.5 625.5000000000008,-11476.5 625.5000000000008,-11482.5 625.5000000000008,-11488.5 625.5000000000008,-11494.5 625.5000000000008,-11500.5 625.5000000000008,-11506.5 625.5000000000008,-11512.5 625.5000000000008,-11518.5 625.5000000000008,-11524.5 625.5000000000008,-11530.5 625.5000000000008,-11536.5 625.5000000000008,-11542.5 625.5000000000008,-11548.5 625.5000000000008,-11554.5 625.5000000000008,-11560.5 625.5000000000008,-11566.5 625.5000000000008,-11572.5 625.5000000000008,-11578.5 625.5000000000008,-11584.5 625.5000000000008,-11590.5 625.5000000000008,-11596.5 625.5000000000008,-11602.5 625.5000000000008,-11608.5 625.5000000000008,-11614.5 625.5000000000008,-11620.5 625.5000000000008,-11626.5 625.5000000000008,-11632.5 625.5000000000008,-11638.5 625.5000000000008,-11644.5 625.5000000000008,-11650.5 625.5000000000008,-11656.5 625.5000000000008,-11662.5 625.5000000000008,-11668.5 625.5000000000008,-11674.5 625.5000000000008,-11680.5 625.5000000000008,-11686.5 625.5000000000008,-11692.5 625.5000000000008,-11698.5 625.5000000000008,-11704.5 625.5000000000008,-11710.5 625.5000000000008,-11716.5 625.5000000000008,-11722.5" stroke="black" stroke-linecap="round" stroke-width="10" /><polyline clip-path="url(#border_clip)" fill="none" points="625.5000000000008,-11722.5 625.5000000000008,-11728.5 625.5000000000008,-11734.5 625.5000000000008,-11740.5 625.5000000000008,-11746.5 625.5000000000008,-11752.5 625.5000000000008,-11758.5 625.5000000000008,-11764.5 625.5000000000008,-11770.5 625.5000000000008,-11776.5 625.5000000000008,-11782.5 625.5000000000008,-11788.5 625.5000000000008,-11794.5 625.5000000000008,-11800.5 625.5000000000008,-11806.5 625.5000000000008,-11812.5 625.5000000000008,-11818.5 625.5000000000008,-11824.5 625.5000000000008,-11830.5 625.5000000000008,-11836.5 625.5000000000008,-11842.5 625.5000000000008,-11848.5 625.5000000000008,-11854.5 625.5000000000008,-11860.5 625.5000000000008,-11866.5 625.5000000000008,-11872.5 625.5000000000008,-11878.5 625.5000000000008,-11884.5 625.5000000000008,-11890.5 625.5000000000008,-11896.5 625.5000000000008,-11902.5 625.5000000000008,-11908.5 625.5000000000008,-11914.5 625.5000000000008,-11920.5 625.5000000000008,-11926.5 625.5000000000008,-11932.5 625.5000000000008,-11938.5 625.5000000000008,-11944.5 625.5000000000008,-11950.5 625.5000000000008,-11956.5 625.5000000000008,-11962.5 625.5000000000008,-11968.5 625.5000000000008,-11974.5" stroke="black" stroke-linecap="round" stroke-width="10" /><polyline clip-path="url(#border_clip)" fill="none" points="625.5000000000008,-11974.5 625.5000000000008,-11980.5 625.5000000000008,-11986.5 625.5000000000008,-11992.5 625.5000000000008,-11998.5 625.5000000000008,-12004.5 625.5000000000008,-12010.5 625.5000000000008,-12016.5 625.5000000000008,-12022.5 625.5000000000008,-12028.5 625.5000000000008,-12034.5 625.5000000000008,-12040.5 625.5000000000008,-12046.5 625.5000000000008,-12052.5 625.5000000000008,-12058.5 625.5000000000008,-12064.5 625.5000000000008,-12070.5 625.5000000000008,-12076.5 625.5000000000008,-12082.5 625.5000000000008,-12088.5 625.5000000000008,-12094.5 625.5000000000008,-12100.5 625.5000000000008,-12106.5 625.5000000000008,-12112.5 625.5000000000008,-12118.5 625.5000000000008,-12124.5 625.5000000000008,-12130.5 625.5000000000008,-12136.5 625.5000000000008,-12142.5 625.5000000000008,-12148.5 625.5000000000008,-12154.5 625.5000000000008,-12160.5 625.5000000000008,-12166.5 625.5000000000008,-12172.5 625.5000000000008,-12178.5 625.5000000000008,-12184.5 625.5000000000008,-12190.5 625.5000000000008,-12196.5 625.5000000000008,-12202.5 625.5000000000008,-12208.5 625.5000000000008,-12214.5 625.5000000000008,-12220.5 625.5000000000008,-12226.5" stroke="black" stroke-linecap="round" stroke-width="10" /><polyline clip-path="url(#border_clip)" fill="none" points="625.5000000000008,-12226.5 625.5000000000008,-12232.5 625.5000000000008,-12238.5 625.5000000000008,-12244.5 625.5000000000008,-12250.5 625.5000000000008,-12256.5 625.5000000000008,-12262.5 625.5000000000008,-12268.5 625.5000000000008,-12274.5 625.5000000000008,-12280.5 625.5000000000008,-12286.5 625.5000000000008,-12292.5 625.5000000000008,-12298.5 625.5000000000008,-12304.5 625.5000000000008,-12310.5 625.5000000000008,-12316.5 625.5000000000008,-12322.5 625.5000000000008,-12328.5 625.5000000000008,-12334.5 625.5000000000008,-12340.5 625.5000000000008,-12346.5 625.5000000000008,-12352.5 625.5000000000008,-12358.5 625.5000000000008,-12364.5 625.5000000000008,-12370.5 625.5000000000008,-12376.5 625.5000000000008,-12382.5 625.5000000000008,-12388.5 625.5000000000008,-12394.5 625.5000000000008,-12400.5 625.5000000000008,-12406.5 625.5000000000008,-12412.5 625.5000000000008,-12418.5 625.5000000000008,-12424.5 625.5000000000008,-12430.5 625.5000000000008,-12436.5 625.5000000000008,-12442.5 625.5000000000008,-12448.5 625.5000000000008,-12454.5 625.5000000000008,-12460.5 625.5000000000008,-12466.5 625.5000000000008,-12472.5 625.5000000000008,-12478.5" stroke="black" stroke-linecap="round" stroke-width="10" /><polyline clip-path="url(#border_clip)" fill="none" points="625.5000000000008,-12478.5 625.5000000000008,-12484.5 625.5000000000008,-12490.5 625.5000000000008,-12496.5 625.5000000000008,-12502.5 625.5000000000008,-12508.5 625.5000000000008,-12514.5 625.5000000000008,-12520.5 625.5000000000008,-12526.5 625.5000000000008,-12532.5 625.5000000000008,-12538.5 625.5000000000008,-12544.5 625.5000000000008,-12550.5 625.5000000000008,-12556.5 625.5000000000008,-12562.5 625.5000000000008,-12568.5 625.5000000000008,-12574.5 625.5000000000008,-12580.5 625.5000000000008,-12586.5 625.5000000000008,-12592.5 625.5000000000008,-12598.5 625.5000000000008,-12604.5 625.5000000000008,-12610.5 625.5000000000008,-12616.5 625.5000000000008,-12622.5 625.5000000000008,-12628.5 625.5000000000008,-12634.5 625.5000000000008,-12640.5 625.5000000000008,-12646.5 625.5000000000008,-12652.5 625.5000000000008,-12658.5 625.5000000000008,-12664.5 625.5000000000008,-12670.5 625.5000000000008,-12676.5 625.5000000000008,-12682.5 625.5000000000008,-12688.5 625.5000000000008,-12694.5 625.5000000000008,-12700.5 625.5000000000008,-12706.5 625.5000000000008,-12712.5 625.5000000000008,-12718.5 625.5000000000008,-12724.5 625.5000000000008,-12730.5" stroke="black" stroke-linecap="round" stroke-width="10" /><polyline clip-path="url(#border_clip)" fill="none" points="625.5000000000008,-12730.5 625.5000000000008,-12736.5 625.5000000000008,-12742.5 625.5000000000008,-12748.5 625.5000000000008,-12754.5 625.5000000000008,-12760.5 625.5000000000008,-12766.5 625.5000000000008,-12772.5 625.5000000000008,-12778.5 625.5000000000008,-12784.5 625.5000000000008,-12790.5 625.5000000000008,-12796.5 625.5000000000008,-12802.5 625.5000000000008,-12808.5 625.5000000000008,-12814.5 625.5000000000008,-12820.5 625.5000000000008,-12826.5 625.5000000000008,-12832.5 625.5000000000008,-12838.5 625.5000000000008,-12844.5 625.5000000000008,-12850.5 625.5000000000008,-12856.5 625.5000000000008,-12862.5 625.5000000000008,-12868.5 625.5000000000008,-12874.5 625.5000000000008,-12880.5 625.5000000000008,-12886.5 625.5000000000008,-12892.5 625.5000000000008,-12898.5 625.5000000000008,-12904.5 625.5000000000008,-12910.5 625.5000000000008,-12916.5 625.5000000000008,-12922.5 625.5000000000008,-12928.5 625.5000000000008,-12934.5 625.5000000000008,-12940.5 625.5000000000008,-12946.5 625.5000000000008,-12952.5 625.5000000000008,-12958.5 625.5000000000008,-12964.5 625.5000000000008,-12970.5 625.5000000000008,-12976.5 625.5000000000008,-12982.5" stroke="black" stroke-linecap="round" stroke-width="10" /><polyline clip-path="url(#border_clip)" fill="none" points="625.5000000000008,-12982.5 625.5000000000008,-12988.5 625.5000000000008,-12994.5 625.5000000000008,-13000.5 625.5000000000008,-13006.5 625.5000000000008,-13012.5 625.5000000000008,-13018.5 625.5000000000008,-13024.5 625.5000000000008,-13030.5 625.5000000000008,-13036.5 625.5000000000008,-13042.5 625.5000000000008,-13048.5 625.5000000000008,-13054.5 625.5000000000008,-13060.5 625.5000000000008,-13066.5 625.5000000000008,-13072.5 625.5000000000008,-13078.5 625.5000000000008,-13084.5 625.5000000000008,-13090.5 625.5000000000008,-13096.5 625.5000000000008,-13102.5 625.5000000000008,-13108.5 625.5000000000008,-13114.5 625.5000000000008,-13120.5 625.5000000000008,-13126.5 625.5000000000008,-13132.5 625.5000000000008,-13138.5 625.5000000000008,-13144.5 625.5000000000008,-13150.5 625.5000000000008,-13156.5 625.5000000000008,-13162.5 625.5000000000008,-13168.5 625.5000000000008,-13174.5 625.5000000000008,-13180.5 625.5000000000008,-13186.5 625.5000000000008,-13192.5 625.5000000000008,-13198.5 625.5000000000008,-13204.5 625.5000000000008,-13210.5 625.5000000000008,-13216.5 625.5000000000008,-13222.5 625.5000000000008,-13228.5 625.5000000000008,-13234.5" stroke="black" stroke-linecap="round" stroke-width="10" /><polyline clip-path="url(#border_clip)" fill="none" points="625.5000000000008,-13234.5 625.5000000000008,-13240.5 625.5000000000008,-13246.5 625.5000000000008,-13252.5 625.5000000000008,-13258.5 625.5000000000008,-13264.5 625.5000000000008,-13270.5 625.5000000000008,-13276.5 625.5000000000008,-13282.5 625.5000000000008,-13288.5 625.5000000000008,-13294.5 625.5000000000009,-13300.5 625.5000000000009,-13306.5 625.5000000000009,-13312.5 625.5000000000009,-13318.5 625.5000000000009,-13324.5 625.5000000000009,-13330.5 625.5000000000009,-13336.5 625.5000000000009,-13342.5 625.5000000000009,-13348.5 625.5000000000009,-13354.5 625.5000000000009,-13360.5 625.5000000000009,-13366.5 625.5000000000009,-13372.5 625.5000000000009,-13378.5 625.5000000000009,-13384.5 625.5000000000009,-13390.5 625.5000000000009,-13396.5 625.5000000000009,-13402.5 625.5000000000009,-13408.5 625.5000000000009,-13414.5 625.5000000000009,-13420.5 625.5000000000009,-13426.5 625.5000000000009,-13432.5 625.5000000000009,-13438.5 625.5000000000009,-13444.5 625.5000000000009,-13450.5 625.5000000000009,-13456.5 625.5000000000009,-13462.5 625.5000000000009,-13468.5 625.5000000000009,-13474.5 625.5000000000009,-13480.5 625.5000000000009,-13486.5" stroke="black" stroke-linecap="round" stroke-width="10" /><polyline clip-path="url(#border_clip)" fill="none" points="625.5000000000009,-13486.5 625.5000000000009,-13492.5 625.5000000000009,-13498.5 625.5000000000009,-13504.5 625.5000000000009,-13510.5 625.5000000000009,-13516.5 625.5000000000009,-13522.5 625.5000000000009,-13528.5 625.5000000000009,-13534.5 625.5000000000009,-13540.5 625.5000000000009,-13546.5 625.5000000000009,-13552.5 625.5000000000009,-13558.5 625.5000000000009,-13564.5 625.5000000000009,-13570.5 625.5000000000009,-13576.5 625.5000000000009,-13582.5 625.5000000000009,-13588.5 625.5000000000009,-13594.5 625.5000000000009,-13600.5 625.5000000000009,-13606.5 625.5000000000009,-13612.5 625.5000000000009,-13618.5 625.5000000000009,-13624.5 625.5000000000009,-13630.5 625.5000000000009,-13636.5 625.5000000000009,-13642.5 625.5000000000009,-13648.5 625.5000000000009,-13654.5 625.5000000000009,-13660.5 625.5000000000009,-13666.5 625.5000000000009,-13672.5 625.5000000000009,-13678.5 625.5000000000009,-13684.5 625.5000000000009,-13690.5 625.5000000000009,-13696.5 625.5000000000009,-13702.5 625.5000000000009,-13708.5 625.5000000000009,-13714.5 625.5000000000009,-13720.5 625.5000000000009,-13726.5 625.5000000000009,-13732.5 625.5000000000009,-13738.5" stroke="black" stroke-linecap="round" stroke-width="10" /><polyline clip-path="url(#border_clip)" fill="none" points="625.5000000000009,-13738.5 625.5000000000009,-13744.5 625.5000000000009,-13750.5 625.5000000000009,-13756.5 625.5000000000009,-13762.5 625.5000000000009,-13768.5 625.5000000000009,-13774.5 625.5000000000009,-13780.5 625.5000000000009,-13786.5 625.5000000000009,-13792.5 625.5000000000009,-13798.5 625.5000000000009,-13804.5 625.5000000000009,-13810.5 625.5000000000009,-13816.5 625.5000000000009,-13822.5 625.5000000000009,-13828.5 625.5000000000009,-13834.5 625.5000000000009,-13840.5 625.5000000000009,-13846.5 625.5000000000009,-13852.5 625.5000000000009,-13858.5 625.5000000000009,-13864.5 625.5000000000009,-13870.5 625.5000000000009,-13876.5 625.5000000000009,-13882.5 625.5000000000009,-13888.5 625.5000000000009,-13894.5 625.5000000000009,-13900.5 625.5000000000009,-13906.5 625.5000000000009,-13912.5 625.5000000000009,-13918.5 625.5000000000009,-13924.5 625.5000000000009,-13930.5 625.5000000000009,-13936.5 625.5000000000009,-13942.5 625.5000000000009,-13948.5 625.5000000000009,-13954.5 625.5000000000009,-13960.5 625.5000000000009,-13966.5 625.5000000000009,-13972.5 625.5000000000009,-13978.5 625.5000000000009,-13984.5 625.5000000000009,-13990.5" stroke="black" stroke-linecap="round" stroke-width="10" /><polyline clip-path="url(#border_clip)" fill="none" points="625.5000000000009,-13990.5 625.5000000000009,-13996.5 625.5000000000009,-14002.5 625.5000000000009,-14008.5 625.5000000000009,-14014.5 625.5000000000009,-14020.5 625.5000000000009,-14026.5 625.5000000000009,-14032.5 625.5000000000009,-14038.5 625.5000000000009,-14044.5 625.5000000000009,-14050.5 625.5000000000009,-14056.5 625.5000000000009,-14062.5 625.5000000000009,-14068.5 625.5000000000009,-14074.5 625.5000000000009,-14080.5 625.5000000000009,-14086.5 625.5000000000009,-14092.5 625.5000000000009,-14098.5 625.5000000000009,-14104.5 625.5000000000009,-14110.5 625.5000000000009,-14116.5 625.5000000000009,-14122.5 625.5000000000009,-14128.5 625.5000000000009,-14134.5 625.5000000000009,-14140.5 625.5000000000009,-14146.5 625.5000000000009,-14152.5 625.5000000000009,-14158.5 625.5000000000009,-14164.5 625.5000000000009,-14170.5 625.5000000000009,-14176.5 625.5000000000009,-14182.5 625.5000000000009,-14188.5 625.5000000000009,-14194.5 625.5000000000009,-14200.5 625.5000000000009,-14206.5 625.5000000000009,-14212.5 625.5000000000009,-14218.5 625.5000000000009,-14224.5 625.5000000000009,-14230.5 625.5000000000009,-14236.5 625.5000000000009,-14242.5" stroke="black" stroke-linecap="round" stroke-width="10" /><polyline clip-path="url(#border_clip)" fill="none" points="625.5000000000009,-14242.5 625.5000000000009,-14248.5 625.5000000000009,-14254.5 625.5000000000009,-14260.5 625.5000000000009,-14266.5 625.5000000000009,-14272.5 625.5000000000009,-14278.5 625.5000000000009,-14284.5 625.5000000000009,-14290.5 625.5000000000009,-14296.5 625.5000000000009,-14302.5 625.5000000000009,-14308.5 625.5000000000009,-14314.5 625.5000000000009,-14320.5 625.5000000000009,-14326.5 625.5000000000009,-14332.5 625.5000000000009,-14338.5 625.5000000000009,-14344.5 625.5000000000009,-14350.5 625.5000000000009,-14356.5 625.5000000000009,-14362.5 625.5000000000009,-14368.5 625.5000000000009,-14374.5 625.5000000000009,-14380.5 625.5000000000009,-14386.5 625.5000000000009,-14392.5 625.5000000000009,-14398.5 625.5000000000009,-14404.5 625.5000000000009,-14410.5 625.5000000000009,-14416.5 625.5000000000009,-14422.5 625.5000000000009,-14428.5 625.5000000000009,-14434.5 625.5000000000009,-14440.5 625.5000000000009,-14446.5 625.5000000000009,-14452.5 625.5000000000009,-14458.5 625.5000000000009,-14464.5 625.5000000000009,-14470.5 625.5000000000009,-14476.5 625.5000000000009,-14482.5 625.5000000000009,-14488.5 625.5000000000009,-14494.5" stroke="black" stroke-linecap="round" stroke-width="10" /><polyline clip-path="url(#border_clip)" fill="none" points="625.5000000000009,-14494.5 625.5000000000009,-14500.5 625.5000000000009,-14506.5 625.5000000000009,-14512.5 625.5000000000009,-14518.5 625.5000000000009,-14524.5 625.5000000000009,-14530.5 625.5000000000009,-14536.5 625.5000000000009,-14542.5 625.5000000000009,-14548.5 625.5000000000009,-14554.5 625.5000000000009,-14560.5 625.5000000000009,-14566.5 625.5000000000009,-14572.5 625.5000000000009,-14578.5 625.5000000000009,-14584.5 625.5000000000009,-14590.5 625.5000000000009,-14596.5 625.5000000000009,-14602.5 625.5000000000009,-14608.5 625.5000000000009,-14614.5 625.5000000000009,-14620.5 625.5000000000009,-14626.5 625.5000000000009,-14632.5 625.5000000000009,-14638.5 625.5000000000009,-14644.5 625.5000000000009,-14650.5 625.5000000000009,-14656.5 625.5000000000009,-14662.5 625.5000000000009,-14668.5 625.5000000000009,-14674.5 625.5000000000009,-14680.5 625.5000000000009,-14686.5 625.5000000000009,-14692.5 625.5000000000009,-14698.5 625.5000000000009,-14704.5 625.5000000000009,-14710.5 625.5000000000009,-14716.5 625.5000000000009,-14722.5 625.5000000000009,-14728.5 625.5000000000009,-14734.5 625.5000000000009,-14740.5 625.5000000000009,-14746.5" stroke="black" stroke-linecap="round" stroke-width="10" /><polyline clip-path="url(#border_clip)" fill="none" points="625.5000000000009,-14746.5 625.5000000000009,-14752.5 625.5000000000009,-14758.5 625.5000000000009,-14764.5 625.5000000000009,-14770.5 625.5000000000009,-14776.5 625.5000000000009,-14782.5 625.5000000000009,-14788.5 625.5000000000009,-14794.5 625.5000000000009,-14800.5 625.5000000000009,-14806.5 625.5000000000009,-14812.5 625.5000000000009,-14818.5 625.5000000000009,-14824.5 625.5000000000009,-14830.5 625.5000000000009,-14836.5 625.5000000000009,-14842.5 625.5000000000009,-14848.5 625.5000000000009,-14854.5 625.5000000000009,-14860.5 625.5000000000009,-14866.5 625.5000000000009,-14872.5 625.5000000000009,-14878.5 625.5000000000009,-14884.5 625.5000000000009,-14890.5 625.5000000000009,-14896.5 625.5000000000009,-14902.5 625.5000000000009,-14908.5 625.5000000000009,-14914.5 625.5000000000009,-14920.5 625.5000000000009,-14926.5 625.5000000000009,-14932.5 625.5000000000009,-14938.5 625.5000000000009,-14944.5 625.5000000000009,-14950.5 625.5000000000009,-14956.5 625.5000000000009,-14962.5 625.5000000000009,-14968.5 625.5000000000009,-14974.5 625.5000000000009,-14980.5 625.5000000000009,-14986.5 625.5000000000009,-14992.5 625.5000000000009,-14998.5" stroke="black" stroke-linecap="round" stroke-width="10" /><polyline clip-path="url(#border_clip)" fill="none" points="625.5000000000009,-14998.5 625.5000000000009,-15004.5 625.5000000000009,-15010.5 625.5000000000009,-15016.5 625.5000000000009,-15022.5 625.5000000000009,-15028.5 625.5000000000009,-15034.5 625.5000000000009,-15040.5 625.5000000000009,-15046.5 625.5000000000009,-15052.5 625.5000000000009,-15058.5 625.5000000000009,-15064.5 625.5000000000009,-15070.5 625.5000000000009,-15076.5 625.5000000000009,-15082.5 625.5000000000009,-15088.5 625.5000000000009,-15094.5 625.5000000000009,-15100.5 625.5000000000009,-15106.5 625.5000000000009,-15112.5 625.5000000000009,-15118.5 625.5000000000009,-15124.5 625.5000000000009,-15130.5 625.5000000000009,-15136.5 625.5000000000009,-15142.5 625.5000000000009,-15148.5 625.5000000000009,-15154.5 625.500000000001,-15160.5 625.500000000001,-15166.5 625.500000000001,-15172.5 625.500000000001,-15178.5 625.500000000001,-15184.5 625.500000000001,-15190.5 625.500000000001,-15196.5 625.500000000001,-15202.5 625.500000000001,-15208.5 625.500000000001,-15214.5 625.500000000001,-15220.5 625.500000000001,-15226.5 625.500000000001,-15232.5 625.500000000001,-15238.5 625.500000000001,-15244.5 625.500000000001,-15250.5" stroke="black" stroke-linecap="round" stroke-width="10" /><polyline clip-path="url(#border_clip)" fill="none" points="625.500000000001,-15250.5 625.500000000001,-15256.5 625.500000000001,-15262.5 625.500000000001,-15268.5 625.500000000001,-15274.5 625.500000000001,-15280.5 625.500000000001,-15286.5 625.500000000001,-15292.5 625.500000000001,-15298.5 625.500000000001,-15304.5 625.500000000001,-15310.5 625.500000000001,-15316.5 625.500000000001,-15322.5 625.500000000001,-15328.5 625.500000000001,-15334.5 625.500000000001,-15340.5 625.500000000001,-15346.5 625.500000000001,-15352.5 625.500000000001,-15358.5 625.500000000001,-15364.5 625.500000000001,-15370.5 625.500000000001,-15376.5 625.500000000001,-15382.5 625.500000000001,-15388.5 625.500000000001,-15394.5 625.500000000001,-15400.5 625.500000000001,-15406.5 625.500000000001,-15412.5 625.500000000001,-15418.5 625.500000000001,-15424.5 625.500000000001,-15430.5 625.500000000001,-15436.5 625.500000000001,-15442.5 625.500000000001,-15448.5 625.500000000001,-15454.5 625.500000000001,-15460.5 625.500000000001,-15466.5 625.500000000001,-15472.5 625.500000000001,-15478.5 625.500000000001,-15484.5 625.500000000001,-15490.5 625.500000000001,-15496.5 625.500000000001,-15502.5" stroke="black" stroke-linecap="round" stroke-width="10" /><polyline clip-path="url(#border_clip)" fill="none" points="625.500000000001,-15502.5 625.500000000001,-15508.5 625.500000000001,-15514.5 625.500000000001,-15520.5 625.500000000001,-15526.5 625.500000000001,-15532.5 625.500000000001,-15538.5 625.500000000001,-15544.5 625.500000000001,-15550.5 625.500000000001,-15556.5 625.500000000001,-15562.5 625.500000000001,-15568.5 625.500000000001,-15574.5 625.500000000001,-15580.5 625.500000000001,-15586.5 625.500000000001,-15592.5 625.500000000001,-15598.5 625.500000000001,-15604.5 625.500000000001,-15610.5 625.500000000001,-15616.5 625.500000000001,-15622.5 625.500000000001,-15628.5 625.500000000001,-15634.5 625.500000000001,-15640.5 625.500000000001,-15646.5 625.500000000001,-15652.5 625.500000000001,-15658.5 625.500000000001,-15664.5 625.500000000001,-15670.5 625.500000000001,-15676.5 625.500000000001,-15682.5 625.500000000001,-15688.5 625.500000000001,-15694.5 625.500000000001,-15700.5 625.500000000001,-15706.5 625.500000000001,-15712.5 625.500000000001,-15718.5 625.500000000001,-15724.5 625.500000000001,-15730.5 625.500000000001,-15736.5 625.500000000001,-15742.5 625.500000000001,-15748.5 625.500000000001,-15754.5" stroke="black" stroke-linecap="round" stroke-width="10" /><polyline clip-path="url(#border_clip)" fill="none" points="625.500000000001,-15754.5 625.500000000001,-15760.5 625.500000000001,-15766.5 625.500000000001,-15772.5 625.500000000001,-15778.5 625.500000000001,-15784.5 625.500000000001,-15790.5 625.500000000001,-15796.5 625.500000000001,-15802.5 625.500000000001,-15808.5 625.500000000001,-15814.5 625.500000000001,-15820.5 625.500000000001,-15826.5 625.500000000001,-15832.5 625.500000000001,-15838.5 625.500000000001,-15844.5 625.500000000001,-15850.5 625.500000000001,-15856.5 625.500000000001,-15862.5 625.500000000001,-15868.5 625.500000000001,-15874.5 625.500000000001,-15880.5 625.500000000001,-15886.5 625.500000000001,-15892.5 625.500000000001,-15898.5 625.500000000001,-15904.5 625.500000000001,-15910.5 625.500000000001,-15916.5 625.500000000001,-15922.5 625.500000000001,-15928.5 625.500000000001,-15934.5 625.500000000001,-15940.5 625.500000000001,-15946.5 625.500000000001,-15952.5 625.500000000001,-15958.5 625.500000000001,-15964.5 625.500000000001,-15970.5 625.500000000001,-15976.5 625.500000000001,-15982.5 625.500000000001,-15988.5 625.500000000001,-15994.5 625.500000000001,-16000.5 625.500000000001,-16006.5" stroke="black" stroke-linecap="round" stroke-width="10" /><polyline clip-path="url(#border_clip)" fill="none" points="625.500000000001,-16006.5 625.500000000001,-16012.5 625.500000000001,-16018.5 625.500000000001,-16024.5 625.500000000001,-16030.5 625.500000000001,-16036.5 625.500000000001,-16042.5 625.500000000001,-16048.5 625.500000000001,-16054.5 625.500000000001,-16060.5 625.500000000001,-16066.5 625.500000000001,-16072.5 625.500000000001,-16078.5 625.500000000001,-16084.5 625.500000000001,-16090.5 625.500000000001,-16096.5 625.500000000001,-16102.5 625.500000000001,-16108.5 625.500000000001,-16114.5 625.500000000001,-16120.5 625.500000000001,-16126.5 625.500000000001,-16132.5 625.500000000001,-16138.5 625.500000000001,-16144.5 625.500000000001,-16150.5 625.500000000001,-16156.5 625.500000000001,-16162.5 625.500000000001,-16168.5 625.500000000001,-16174.5 625.500000000001,-16180.5 625.500000000001,-16186.5 625.500000000001,-16192.5 625.500000000001,-16198.5 625.500000000001,-16204.5 625.500000000001,-16210.5 625.500000000001,-16216.5 625.500000000001,-16222.5 625.500000000001,-16228.5 625.500000000001,-16234.5 625.500000000001,-16240.5 625.500000000001,-16246.5 625.500000000001,-16252.5 625.500000000001,-16258.5" stroke="black" stroke-linecap="round" stroke-width="10" /><polyline clip-path="url(#border_clip)" fill="none" points="625.500000000001,-16258.5 625.500000000001,-16264.5 625.500000000001,-16270.5 625.500000000001,-16276.5 625.500000000001,-16282.5 625.500000000001,-16288.5 625.500000000001,-16294.5 625.500000000001,-16300.5 625.500000000001,-16306.5 625.500000000001,-16312.5 625.500000000001,-16318.5 625.500000000001,-16324.5 625.500000000001,-16330.5 625.500000000001,-16336.5 625.500000000001,-16342.5 625.500000000001,-16348.5 625.500000000001,-16354.5 625.500000000001,-16360.5 625.500000000001,-16366.5 625.500000000001,-16372.5 625.500000000001,-16378.5 625.500000000001,-16384.5 625.500000000001,-16390.5 625.500000000001,-16396.5 625.500000000001,-16402.5 625.500000000001,-16408.5 625.500000000001,-16414.5 625.500000000001,-16420.5 625.500000000001,-16426.5 625.500000000001,-16432.5 625.500000000001,-16438.5 625.500000000001,-16444.5 625.500000000001,-16450.5 625.500000000001,-16456.5 625.500000000001,-16462.5 625.500000000001,-16468.5 625.500000000001,-16474.5 625.500000000001,-16480.5 625.500000000001,-16486.5 625.500000000001,-16492.5 625.500000000001,-16498.5 625.500000000001,-16504.5 625.500000000001,-16510.5" stroke="black" stroke-linecap="round" stroke-width="10" /><polyline clip-path="url(#border_clip)" fill="none" points="625.500000000001,-16510.5 625.500000000001,-16516.5 625.500000000001,-16522.5 625.500000000001,-16528.5 625.500000000001,-16534.5 625.500000000001,-16540.5 625.500000000001,-16546.5 625.500000000001,-16552.5 625.500000000001,-16558.5 625.500000000001,-16564.5 625.500000000001,-16570.5 625.500000000001,-16576.5 625.500000000001,-16582.5 625.500000000001,-16588.5 625.500000000001,-16594.5 625.500000000001,-16600.5 625.500000000001,-16606.5 625.500000000001,-16612.5 625.500000000001,-16618.5 625.500000000001,-16624.5 625.500000000001,-16630.5 625.500000000001,-16636.5 625.500000000001,-16642.5 625.500000000001,-16648.5 625.500000000001,-16654.5 625.500000000001,-16660.5 625.500000000001,-16666.5 625.500000000001,-16672.5 625.500000000001,-16678.5 625.500000000001,-16684.5 625.500000000001,-16690.5 625.500000000001,-16696.5 625.500000000001,-16702.5 625.500000000001,-16708.5 625.500000000001,-16714.5 625.500000000001,-16720.5 625.500000000001,-16726.5 625.500000000001,-16732.5 625.500000000001,-16738.5 625.500000000001,-16744.5 625.500000000001,-16750.5 625.500000000001,-16756.5 625.500000000001,-16762.5" stroke="black" stroke-linecap="round" stroke-width="10" /><polyline clip-path="url(#border_clip)" fill="none" points="625.500000000001,-16762.5 625.500000000001,-16768.5 625.500000000001,-16774.5 625.500000000001,-16780.5 625.500000000001,-16786.5 625.500000000001,-16792.5 625.500000000001,-16798.5 625.500000000001,-16804.5 625.500000000001,-16810.5 625.500000000001,-16816.5 625.500000000001,-16822.5 625.500000000001,-16828.5 625.500000000001,-16834.5 625.500000000001,-16840.5 625.500000000001,-16846.5 625.500000000001,-16852.5 625.500000000001,-16858.5 625.500000000001,-16864.5 625.500000000001,-16870.5 625.500000000001,-16876.5 625.500000000001,-16882.5 625.500000000001,-16888.5 625.500000000001,-16894.5 625.500000000001,-16900.5 625.500000000001,-16906.5 625.500000000001,-16912.5 625.500000000001,-16918.5 625.500000000001,-16924.5 625.500000000001,-16930.5 625.500000000001,-16936.5 625.500000000001,-16942.5 625.500000000001,-16948.5 625.500000000001,-16954.5 625.500000000001,-16960.5 625.500000000001,-16966.5 625.500000000001,-16972.5 625.500000000001,-16978.5 625.500000000001,-16984.5 625.500000000001,-16990.5 625.500000000001,-16996.5 625.500000000001,-17002.5 625.500000000001,-17008.5 625.5000000000011,-17014.5" stroke="black" stroke-linecap="round" stroke-width="10" /><polyline clip-path="url(#border_clip)" fill="none" points="625.5000000000011,-17014.5 625.5000000000011,-17020.5 625.5000000000011,-17026.5 625.5000000000011,-17032.5 625.5000000000011,-17038.5 625.5000000000011,-17044.5 625.5000000000011,-17050.5 625.5000000000011,-17056.5 625.5000000000011,-17062.5 625.5000000000011,-17068.5 625.5000000000011,-17074.5 625.5000000000011,-17080.5 625.5000000000011,-17086.5 625.5000000000011,-17092.5 625.5000000000011,-17098.5 625.5000000000011,-17104.5 625.5000000000011,-17110.5 625.5000000000011,-17116.5 625.5000000000011,-17122.5 625.5000000000011,-17128.5 625.5000000000011,-17134.5 625.5000000000011,-17140.5 625.5000000000011,-17146.5 625.5000000000011,-17152.5 625.5000000000011,-17158.5 625.5000000000011,-17164.5 625.5000000000011,-17170.5 625.5000000000011,-17176.5 625.5000000000011,-17182.5 625.5000000000011,-17188.5 625.5000000000011,-17194.5 625.5000000000011,-17200.5 625.5000000000011,-17206.5 625.5000000000011,-17212.5 625.5000000000011,-17218.5 625.5000000000011,-17224.5 625.5000000000011,-17230.5 625.5000000000011,-17236.5 625.5000000000011,-17242.5 625.5000000000011,-17248.5 625.5000000000011,-17254.5 625.5000000000011,-17260.5 625.5000000000011,-17266.5" stroke="black" stroke-linecap="round" stroke-width="10" /><polyline clip-path="url(#border_clip)" fill="none" points="625.5000000000011,-17266.5 625.5000000000011,-17272.5 625.5000000000011,-17278.5 625.5000000000011,-17284.5 625.5000000000011,-17290.5 625.5000000000011,-17296.5 625.5000000000011,-17302.5 625.5000000000011,-17308.5 625.5000000000011,-17314.5 625.5000000000011,-17320.5 625.5000000000011,-17326.5 625.5000000000011,-17332.5 625.5000000000011,-17338.5 625.5000000000011,-17344.5 625.5000000000011,-17350.5 625.5000000000011,-17356.5 625.5000000000011,-17362.5 625.5000000000011,-17368.5 625.5000000000011,-17374.5 625.5000000000011,-17380.5 625.5000000000011,-17386.5 625.5000000000011,-17392.5 625.5000000000011,-17398.5 625.5000000000011,-17404.5 625.5000000000011,-17410.5 625.5000000000011,-17416.5 625.5000000000011,-17422.5 625.5000000000011,-17428.5 625.5000000000011,-17434.5 625.5000000000011,-17440.5 625.5000000000011,-17446.5 625.5000000000011,-17452.5 625.5000000000011,-17458.5 625.5000000000011,-17464.5 625.5000000000011,-17470.5 625.5000000000011,-17476.5 625.5000000000011,-17482.5 625.5000000000011,-17488.5 625.5000000000011,-17494.5 625.5000000000011,-17500.5 625.5000000000011,-17506.5 625.5000000000011,-17512.5 625.5000000000011,-17518.5" stroke="black" stroke-linecap="round" stroke-width="10" /><polyline clip-path="url(#border_clip)" fill="none" points="625.5000000000011,-17518.5 625.5000000000011,-17524.5 625.5000000000011,-17530.5 625.5000000000011,-17536.5 625.5000000000011,-17542.5 625.5000000000011,-17548.5 625.5000000000011,-17554.5 625.5000000000011,-17560.5 625.5000000000011,-17566.5 625.5000000000011,-17572.5 625.5000000000011,-17578.5 625.5000000000011,-17584.5 625.5000000000011,-17590.5 625.5000000000011,-17596.5 625.5000000000011,-17602.5 625.5000000000011,-17608.5 625.5000000000011,-17614.5 625.5000000000011,-17620.5 625.5000000000011,-17626.5 625.5000000000011,-17632.5 625.5000000000011,-17638.5 625.5000000000011,-17644.5 625.5000000000011,-17650.5 625.5000000000011,-17656.5 625.5000000000011,-17662.5 625.5000000000011,-17668.5 625.5000000000011,-17674.5 625.5000000000011,-17680.5 625.5000000000011,-17686.5 625.5000000000011,-17692.5 625.5000000000011,-17698.5 625.5000000000011,-17704.5 625.5000000000011,-17710.5 625.5000000000011,-17716.5 625.5000000000011,-17722.5 625.5000000000011,-17728.5 625.5000000000011,-17734.5 625.5000000000011,-17740.5 625.5000000000011,-17746.5 625.5000000000011,-17752.5 625.5000000000011,-17758.5 625.5000000000011,-17764.5 625.5000000000011,-17770.5" stroke="black" stroke-linecap="round" stroke-width="10" /><polyline clip-path="url(#border_clip)" fill="none" points="625.5000000000011,-17770.5 625.5000000000011,-17776.5 625.5000000000011,-17782.5 625.5000000000011,-17788.5 625.5000000000011,-17794.5 625.5000000000011,-17800.5 625.5000000000011,-17806.5 625.5000000000011,-17812.5 625.5000000000011,-17818.5 625.5000000000011,-17824.5 625.5000000000011,-17830.5 625.5000000000011,-17836.5 625.5000000000011,-17842.5 625.5000000000011,-17848.5 625.5000000000011,-17854.5 625.5000000000011,-17860.5 625.5000000000011,-17866.5 625.5000000000011,-17872.5 625.5000000000011,-17878.5 625.5000000000011,-17884.5 625.5000000000011,-17890.5 625.5000000000011,-17896.5 625.5000000000011,-17902.5 625.5000000000011,-17908.5 625.5000000000011,-17914.5 625.5000000000011,-17920.5 625.5000000000011,-17926.5 625.5000000000011,-17932.5 625.5000000000011,-17938.5 625.5000000000011,-17944.5 625.5000000000011,-17950.5 625.5000000000011,-17956.5 625.5000000000011,-17962.5 625.5000000000011,-17968.5 625.5000000000011,-17974.5 625.5000000000011,-17980.5 625.5000000000011,-17986.5 625.5000000000011,-17992.5 625.5000000000011,-17998.5 625.5000000000011,-18004.5 625.5000000000011,-18010.5 625.5000000000011,-18016.5 625.5000000000011,-18022.5" stroke="black" stroke-linecap="round" stroke-width="10" /><polyline clip-path="url(#border_clip)" fill="none" points="625.5000000000011,-18022.5 625.5000000000011,-18028.5 625.5000000000011,-18034.5 625.5000000000011,-18040.5 625.5000000000011,-18046.5 625.5000000000011,-18052.5 625.5000000000011,-18058.5 625.5000000000011,-18064.5 625.5000000000011,-18070.5 625.5000000000011,-18076.5 625.5000000000011,-18082.5 625.5000000000011,-18088.5 625.5000000000011,-18094.5 625.5000000000011,-18100.5 625.5000000000011,-18106.5 625.5000000000011,-18112.5 625.5000000000011,-18118.5 625.5000000000011,-18124.5" stroke="black" stroke-linecap="round" stroke-width="10" /><polyline clip-path="url(#border_clip)" fill="none" points="625.5,625.5 625.5,619.5 625.5,613.5 625.5,607.5 625.5,601.5 625.5,595.5 625.5,589.5 625.5,583.5 625.5,577.5 625.5,571.5 625.5,565.5 625.5,559.5 625.5,553.5 625.5,547.5 625.5,541.5 625.5,535.5 625.5,529.5 625.5,523.5 625.5,517.5 625.5,511.5 625.5,505.5 625.5,499.5 625.5,493.5 625.5,487.5 625.5,481.5 625.5,475.5 625.5,469.5 625.5,463.5 625.5,457.5 625.5,451.5 625.5,445.5 625.5,439.5 625.5,433.5 625.5,427.5 625.5,421.5 625.5,415.5 625.5,409.5 625.5,403.5 625.5,397.5 625.5,391.5 625.5,385.5 625.5,379.5 625.5,373.5" stroke="black" stroke-linecap="round" stroke-width="10" /></svg>